<svg xmlns="http://www.w3.org/2000/svg" width="670" height="733" viewBox="0 0 670 733" fill="none"><g clip-path="url(#clip0_533_466)"><path d="M588.474 567.92C574.971 582.14 562.195 591.312 552.099 598.557 433.44 683.723 293.037 658.897 263.197 652.836c-44.064-8.952-129.238-26.258-190.8177-98.698-93.1645-109.595-78.65813-282.262-6.3939-396.243C79.2035 137.045 149.027 21.3305 290.943 2.77361 376.83-8.45711 476.945 14.1932 549.446 74.9544 701.633 202.5 690.8 460.161 588.474 567.92z" fill="url(#paint0_linear_533_466)"></path><path d="M623.907 586.762C623.907 592.536 619.18 597.264 613.4 597.264H45.21C39.4304 597.264 34.7025 592.539 34.7025 586.762L29.9746 260.131c0-5.77399999999997 6.8026-17.05 19.2678-16.204L604.539 229.554C611.791 229.366 618.802 232.158 623.936 237.278 629.07 242.397 631.881 249.398 631.709 256.645L623.907 586.762z" fill="url(#paint1_linear_533_466)"></path><path d="M613.534 576.689C613.534 582.157 609.062 586.633 603.593 586.633H58.9134C53.4469 586.633 48.9724 582.159 48.9724 576.689L44.5098 280.171C45.0356 262.326 60.675 255.913 70.1547 256.291L602.355 242.007C607.448 241.871 612.375 243.834 615.982 247.435 619.588 251.036 621.575 255.961 621.446 261.057L613.534 576.689z" fill="#aab4ed"></path><g opacity=".66"><g opacity=".66"><path opacity=".66" d="M53.9943 376.243C53.5545 376.243 53.1936 375.889 53.1888 375.449l-1.3529-92.101C51.8646 277.196 53.7577 272.282 57.4674 268.727 64.2174 262.257 74.7799 262.587 75.2197 262.601L245.176 258.039C245.183 258.039 245.19 258.039 245.197 258.039 245.632 258.039 245.991 258.386 246.003 258.823 246.015 259.268 245.663 259.639 245.216 259.651L75.2125 264.213C74.744 264.198 64.8389 263.89 58.5812 269.889 55.199 273.129 53.4733 277.655 53.447 283.336l1.3528 92.086C54.807 375.867 54.4509 376.235 54.0063 376.24 54.0015 376.243 53.9991 376.243 53.9943 376.243z" fill="#fff"></path></g></g><path d="M72.9705 560.238C73.5418 535.73 73.3291 318.709 71.9236 299.966c-1.4054-18.743 27.7747-22.258 72.5774-24.367C189.304 273.49 567.314 265.138 577.047 264.349 598.925 262.575 600.768 295.253 601.265 366.298 601.559 408.428 601.678 474.318 601.729 520.815 601.76 550.758 577.36 574.96 547.429 574.682 424.021 573.53 131.613 570.888 110.583 571.514 83.8701 572.308 72.7435 569.958 72.9705 560.238z" fill="#396caa"></path><path d="M667.547 624.378H2.5813C1.23081 624.378.128906 623.273.128906 621.925V598.134C.128906 596.783 1.2332 595.68 2.5813 595.68H667.547C668.898 595.68 670 596.785 670 598.134V621.925C670 623.273 668.896 624.378 667.547 624.378z" fill="url(#paint2_linear_533_466)"></path><path d="M76.8816 309.188l5.782 235.04C82.8524 551.924 88.7994 558.053 96.0131 557.983L193.726 557.056C200.969 556.986 206.787 550.698 206.76 542.968L205.933 304.203C205.905 296.195 199.635 289.802 192.139 290.141L89.471 294.797C82.2907 295.119 76.6928 301.518 76.8816 309.188z" fill="#5184ce"></path><path d="M219.306 305.934 223.991 544C224.144 551.74 229.952 557.921 236.991 557.835L574.078 553.701C581.191 553.615 586.846 547.164 586.672 539.343L581.277 299.825C581.103 292.08 575.271 285.916 568.229 286.033L231.852 291.619C224.772 291.741 219.153 298.151 219.306 305.934z" fill="#5184ce"></path><path d="M619.449 639.111C619.371 639.08 576.435 563.868 570.634 556.79 569.658 555.599 568.148 554.994 566.618 555.176l-11.985 1.428L540.555 587.07 564.008 573.405C561.687 589.461 591.816 613.322 602.149 622.03 603.198 622.914 603.284 624.495 602.335 625.487L598.21 629.808C604.981 636.675 612.797 641.084 621.617 643.123L619.449 639.111z" fill="url(#paint3_linear_533_466)"></path><path d="M600.602 627.477S597.968 628.328 597.079 630.673C596.654 631.795 597.112 633.067 598.088 633.767 602.424 636.873 616.724 646.906 623.321 648.869 623.862 649.029 624.378 648.542 624.256 647.989 623.917 646.457 622.822 643.394 619.294 638.91L619.609 639.551C620.011 640.362 619.127 641.206 618.34 640.761 613.925 638.27 604.936 632.813 600.602 627.477z" fill="url(#paint4_linear_533_466)"></path><path d="M602.727 657.573C602.655 657.527 596.214 642.002 596.142 641.954 590.236 605.983 575.827 575.177 571.577 567.072 570.863 565.709 569.505 564.81 567.973 564.678L555.947 563.652l-19.951 26.986L561.729 582.004C556.208 597.259 580.887 626.726 589.246 637.342 590.094 638.42 589.858 639.987 588.73 640.766L583.815 644.161C589.06 652.257 595.819 658.158 604.046 661.941L602.727 657.573z" fill="url(#paint5_linear_533_466)"></path><path d="M586.621 642.363S583.87 642.662 582.524 644.781C581.879 645.794 582.073 647.131 582.888 648.013 586.504 651.934 598.479 664.652 604.546 667.911 605.043 668.179 605.645 667.804 605.638 667.24 605.617 665.669 605.162 662.448 602.614 657.343L602.794 658.034C603.023 658.909 601.986 659.557 601.305 658.962 597.487 655.629 589.786 648.465 586.621 642.363z" fill="url(#paint6_linear_533_466)"></path><path d="M499.659 557.967s-10.877 16.184-11.769 23.568S490.897 591.47 502.284 592.412C536.166 595.214 552.866 585.057 552.866 585.057 555.185 570.276 556.834 566.514 576.19 558.476 576.19 558.476 551.707 560.42 546.781 558.507 541.852 556.594 499.659 557.967 499.659 557.967z" fill="url(#paint7_linear_533_466)"></path><path d="M543.037 467.289S535.46 458.322 527.405 469.323C525.947 471.315 520.344 469.673 518.289 473.843 517.227 475.997 514.937 477.219 512.578 476.784 506.701 475.698 497.094 475.607 492.35 484.822 488.728 491.854 491.525 495.972 495.144 498.317 497.802 500.041 498.751 503.539 497.144 506.27 495.603 508.888 495.313 512.434 499.293 516.704 508.214 526.269 525.875 510.634 525.875 510.634l14.021-33.145L543.037 467.289z" fill="url(#paint8_linear_533_466)"></path><path d="M529.078 555.824S541.744 543.759 547.981 535.766C551.351 531.445 552.41 525.759 550.851 520.506 548.004 510.911 542.944 500.976 542.483 499.429 541.775 497.059 527.573 497.157 527.573 497.157s-27.95 18.146-38.93 48.883L500.976 549.88s7.298-12.247 14.509-20.035c0 0-12.477 16.4889999999999-12.917 23.237L529.078 555.824z" fill="url(#paint9_linear_533_466)"></path><path d="M553.212 560.587 543.695 550.227 532.702 553.187S519.885 555.174 512.552 553.187L505.216 551.2 488.64 546.038 486.037 553.397C485.375 555.265 486.04 557.34 487.655 558.488 489.09 559.506 490.77 560.628 491.841 561.096 494.023 562.053 542.124 561.398 542.124 561.398L553.212 560.587z" fill="url(#paint10_linear_533_466)"></path><path d="M537.334 480.074 527.787 497.832C528.418 501.708 538.177 501.818 539.686 499.503 539.839 499.269 539.927 498.996 539.984 498.719L545.695 486.855C545.941 485.697 542.769 481.8 541.727 481.243L537.934 479.222C536.471 478.445 542.566 478.383 537.334 480.074z" fill="url(#paint11_linear_533_466)"></path><path d="M556.655 475.906S557.733 481.905 553.02 489.533C548.306 497.16 543.612 496.816 541.226 494.095 538.841 491.374 535.984 486.843 537.285 479.237 538.582 471.631 555.025 468.255 556.655 475.906z" fill="url(#paint12_linear_533_466)"></path><path d="M542.99 480.064S550.622 470.036 556.482 478.778L556.384 481.798S564.004 481.441 563.177 474.414C562.35 467.389 556.129 462.588 547.505 464.988 538.881 467.389 533.84 470.122 532.867 476.114 531.892 482.104 536.782 481.126 536.782 481.126S538.649 476.992 540.905 476.709C543.162 476.427 542.347 479.696 542.347 479.696L542.99 480.064z" fill="url(#paint13_linear_533_466)"></path><path d="M541.237 479.796S545.19 474.665 541.591 473.599C537.991 472.532 538.127 478.627 538.362 480.894L541.237 479.796z" fill="url(#paint14_linear_533_466)"></path><path d="M521.708 564.685C521.741 564.688 521.775 564.688 521.808 564.688L565.588 564.64C566.671 564.64 567.545 563.76 567.545 562.677S566.663 560.699 565.583 560.719L521.803 560.766C520.721 560.766 519.846 561.646 519.846 562.73 519.848 563.779 520.673 564.635 521.708 564.685z" fill="url(#paint15_linear_533_466)"></path><path d="M604.943 524.925H568.482C565.793 524.925 563.345 526.477 562.198 528.911l-16.856 35.753h45.309C592.384 564.664 593.943 563.605 594.578 561.993L607.648 528.908C608.406 526.995 606.998 524.925 604.943 524.925z" fill="url(#paint16_linear_533_466)"></path><path d="M579.259 543.255C578.468 545.71 579.053 548.094 580.562 548.582 582.072 549.067 583.937 547.472 584.725 545.017 585.517 542.561 584.931 540.177 583.423 539.689 581.912 539.204 580.048 540.799 579.259 543.255z" fill="url(#paint17_linear_533_466)"></path><path d="M371.59 614.115H75.5463C72.9003 614.115 70.7539 616.263 70.7539 618.91 70.7539 621.556 72.9003 623.704 75.5463 623.704H371.588C374.234 623.704 376.38 621.556 376.38 618.91 376.383 616.263 374.236 614.115 371.59 614.115z" fill="url(#paint18_linear_533_466)"></path><path d="M329.659 565.379H117.48C111.083 565.379 105.896 570.565 105.896 576.966v37.152H341.24V576.966C341.24 570.565 336.056 565.379 329.659 565.379z" fill="url(#paint19_linear_533_466)"></path><path d="M313.963 544.675H133.179c-6.396.0-11.583 5.18600000000004-11.583 11.587V565.379H325.543V556.262C325.543 549.863 320.359 544.675 313.963 544.675z" fill="url(#paint20_linear_533_466)"></path><path d="M278.026 544.675H169.109v-58.04C169.109 484.963 170.465 483.608 172.135 483.608H274.997C276.668 483.608 278.023 484.963 278.023 486.635v58.04H278.026z" fill="url(#paint21_linear_533_466)"></path><path d="M154.677 575.5H135.66v38.615h19.017V575.5z" fill="url(#paint22_linear_533_466)"></path><path d="M169.108 575.5H161.467v38.615H169.108V575.5z" fill="url(#paint23_linear_533_466)"></path><path d="M179.88 575.5h-7.642v38.615h7.642V575.5z" fill="url(#paint24_linear_533_466)"></path><path d="M190.649 575.5H183.008v38.615H190.649V575.5z" fill="url(#paint25_linear_533_466)"></path><path d="M45.9592 308.906C43.306 311.35 43.0742 315.462 45.4381 318.188L194.477 492.285C196.941 495.128 201.268 495.371 204.036 492.823l12.68-11.678L52.5754 302.816 45.9592 308.906z" fill="url(#paint26_linear_533_466)"></path><path d="M66.367 252.972C61.2925 247.681 52.9219 247.423 47.5295 252.389L34.1632 264.7C28.7708 269.667 28.3406 278.033 33.1928 283.527L211.025 486.383l37.276-34.333C251.324 449.265 251.46 444.538 248.606 441.582L66.367 252.972z" fill="url(#paint27_linear_533_466)"></path><path d="M79.1208 295.478 77.7225 296.767C73.3937 300.755 73.1165 307.498 77.101 311.828l93.843 101.956C174.931 418.114 181.672 418.392 186.001 414.406L187.399 413.117C191.728 409.129 192.005 402.386 188.02 398.056L94.1769 296.1C90.19 291.769 83.4495 291.49 79.1208 295.478z" fill="url(#paint28_linear_533_466)"></path><path d="M80.3861 294.323 76.4453 297.952 184.715 415.596 188.656 411.967 80.3861 294.323z" fill="#91b3fa"></path><path d="M224.801 518c26.239.0 47.509-21.277 47.509-47.524s-21.27-47.524-47.509-47.524c-26.238.0-47.508 21.277-47.508 47.524S198.563 518 224.801 518z" fill="url(#paint29_linear_533_466)"></path><path d="M224.801 506.779c20.043.0 36.291-16.253 36.291-36.303s-16.248-36.303-36.291-36.303c-20.043.0-36.291 16.253-36.291 36.303s16.248 36.303 36.291 36.303z" fill="#91b3fa"></path><path d="M43.918 264.296l9.3745 10.186C55.3386 276.706 58.8164 276.797 60.9771 274.685L191.769 145.22C193.841 143.195 193.927 139.888 191.965 137.758l-4.893-5.316L43.918 264.296z" fill="url(#paint30_linear_533_466)"></path><path d="M194.447 92.421 204.331 103.159C208.318 107.489 208.11 114.215 203.862 118.29L48.1259 268.866 20.564 238.923C18.3291 236.493 18.5323 232.701 21.0133 230.525L179.334 91.6439C183.744 87.7441 190.46 88.0908 194.447 92.421z" fill="url(#paint31_linear_533_466)"></path><path d="M149.343 128.813l-85.5784 78.82C59.9785 211.122 59.7347 217.018 63.2221 220.806 66.7094 224.593 72.6038 224.837 76.3899 221.348l85.5781-78.823C165.754 139.037 165.998 133.14 162.51 129.353 159.023 125.568 153.129 125.324 149.343 128.813z" fill="url(#paint32_linear_533_466)"></path><path d="M61.7731 219.226 64.6855 222.39l99.2955-91.444L161.069 127.782 61.7731 219.226z" fill="#91b3fa"></path><path d="M38.1507 293.388c21.07.0 38.1507-17.086 38.1507-38.163.0-21.077-17.0807-38.164-38.1507-38.164S0 234.148.0 255.225s17.0807 38.163 38.1507 38.163z" fill="url(#paint33_linear_533_466)"></path><path d="M66.9194 259.822c2.5333-15.899-8.2972-30.842-24.1906-33.376S11.8976 234.746 9.36427 250.645c-2.53329 15.899 8.29723 30.842 24.19063 33.376C49.4484 286.555 64.3861 275.721 66.9194 259.822z" fill="#91b3fa"></path><path d="M311.492 156.36 305.54 166.149C303.14 170.096 298.797 171.871 295.769 170.139l-111.73-63.164 16.6-27.2983c1.346-2.2141 3.803-3.1561 5.44-2.0873L310.543 145.844C313.471 147.74 313.891 152.412 311.492 156.36z" fill="url(#paint34_linear_533_466)"></path><path d="M199.063 124.676c16.539.0 29.947-13.412 29.947-29.9572.0-16.545-13.408-29.9574-29.947-29.9574-16.54.0-29.948 13.4124-29.948 29.9574.0 16.5452 13.408 29.9572 29.948 29.9572z" fill="url(#paint35_linear_533_466)"></path><path d="M209.912 114.862c11.118-5.999 15.27-19.8787 9.273-31.001C213.188 72.7387 199.313 68.5855 188.194 74.5846 177.076 80.5836 172.924 94.4632 178.921 105.585 184.918 116.708 198.793 120.861 209.912 114.862z" fill="#91b3fa"></path><path d="M325.311 148.972 314.442 142.415C314.196 142.267 313.873 142.346 313.725 142.592l-19.758 32.777C293.819 175.615 293.898 175.938 294.144 176.086L305.013 182.642C305.259 182.79 305.582 182.712 305.73 182.465l19.757-32.776C325.636 149.44 325.557 149.12 325.311 148.972z" fill="url(#paint36_linear_533_466)"></path><path d="M339.793 162.326l25.021-18.07 34.671 42.181L394.228 192.646l-31.345-33.637-19.364 14.179-3.726-10.862z" fill="url(#paint37_linear_533_466)"></path><path d="M323.863 189.005 320.008 219.634l53.625 10.21L376.559 222.255l-44.535-11.391L335.176 187.068 323.863 189.005z" fill="url(#paint38_linear_533_466)"></path><path d="M315.783 188.209C320.929 192.426 328.114 193.878 334.805 191.401 344.839 187.685 349.964 176.533 346.249 166.496 344.368 161.415 340.584 157.594 336.005 155.54l-20.222 32.669z" fill="url(#paint39_linear_533_466)"></path><path d="M304.772 181.408 301.608 186.659C301.036 187.606 301.395 188.869 302.408 189.481L312.142 195.351C313.155 195.963 314.439 195.69 315.01 194.743l25.236-41.864C340.817 151.932 340.459 150.669 339.445 150.057L329.712 144.187C328.699 143.575 327.415 143.848 326.844 144.794L323.945 149.605l-19.173 31.803z" fill="url(#paint40_linear_533_466)"></path><g opacity=".64"><g opacity=".64"><path opacity=".64" d="M315.865 372.566C315.196 372.566 314.541 372.231 314.156 371.624 313.575 370.701 313.007 369.768 312.447 368.829 311.878 367.87 312.194 366.634 313.15 366.065 314.106 365.496 315.344 365.811 315.913 366.768 316.453 367.679 317.005 368.582 317.57 369.474 318.162 370.416 317.878 371.662 316.936 372.255 316.604 372.465 316.231 372.566 315.865 372.566z" fill="#fff"></path></g><g opacity=".64"><path opacity=".64" d="M309.238 360.673C308.492 360.673 307.775 360.257 307.426 359.542 306.473 357.596 305.562 355.609 304.716 353.636 304.276 352.613 304.749 351.427 305.775 350.987 306.795 350.547 307.983 351.02 308.423 352.046 309.243 353.956 310.127 355.884 311.05 357.768 311.54 358.767 311.127 359.977 310.127 360.467 309.838 360.608 309.537 360.673 309.238 360.673zM302.854 345.153C302.012 345.153 301.226 344.622 300.944 343.78 300.258 341.748 299.61 339.66 299.02 337.575 298.716 336.504 299.338 335.388 300.409 335.084 301.482 334.778 302.596 335.402 302.899 336.473 303.473 338.493 304.099 340.519 304.766 342.491 305.122 343.548 304.556 344.691 303.499 345.047 303.284 345.117 303.067 345.153 302.854 345.153zm-4.334-16.219C297.579 328.934 296.737 328.272 296.546 327.313 296.123 325.199 295.748 323.047 295.427 320.915 295.262 319.812 296.023 318.787 297.122 318.622 298.217 318.454 299.249 319.217 299.414 320.317 299.725 322.385 300.088 324.475 300.497 326.524 300.715 327.617 300.007 328.678 298.915 328.896 298.786 328.922 298.652 328.934 298.52 328.934zM296.295 312.297C295.243 312.297 294.359 311.482 294.285 310.418 294.137 308.268 294.041 306.085 294 303.926 293.979 302.812 294.863 301.891 295.977 301.87 295.989 301.87 296.003 301.87 296.015 301.87 297.11 301.87 298.009 302.747 298.03 303.847 298.071 305.939 298.164 308.058 298.305 310.141 298.382 311.252 297.543 312.214 296.431 312.29 296.388 312.295 296.34 312.297 296.295 312.297zM296.238 295.515C296.197 295.515 296.154 295.512 296.111 295.51 295 295.44 294.156 294.484 294.223 293.372 294.357 291.213 294.545 289.032 294.787 286.888 294.911 285.781 295.91 284.984 297.014 285.109 298.121 285.233 298.917 286.23 298.793 287.337 298.561 289.415 298.377 291.531 298.248 293.623 298.183 294.692 297.294 295.515 296.238 295.515zM298.367 278.854C298.238 278.854 298.109 278.842 297.98 278.815 296.888 278.603 296.173 277.543 296.386 276.451 296.799 274.325 297.27 272.188 297.789 270.098 298.054 269.017 299.149 268.355 300.229 268.622 301.31 268.89 301.969 269.983 301.702 271.064 301.202 273.089 300.746 275.162 300.344 277.221 300.155 278.184 299.312 278.854 298.367 278.854zM302.639 262.614C302.426 262.614 302.211 262.58 301.998 262.509 300.942 262.155 300.373 261.012 300.727 259.957 301.413 257.906 302.156 255.85 302.94 253.843 303.344 252.806 304.51 252.294 305.552 252.698 306.59 253.102 307.101 254.274 306.697 255.309 305.937 257.255 305.218 259.247 304.553 261.237 304.269 262.081 303.482 262.614 302.639 262.614zM308.975 247.07C308.679 247.07 308.38 247.005 308.096 246.866 307.094 246.381 306.676 245.174 307.163 244.172 308.108 242.228 309.109 240.284 310.144 238.397 310.68 237.419 311.903 237.061 312.881 237.599 313.859 238.134 314.215 239.359 313.679 240.336 312.678 242.166 311.705 244.05 310.789 245.934 310.44 246.651 309.723 247.07 308.975 247.07zM317.257 232.472C316.877 232.472 316.493 232.365 316.153 232.14 315.223 231.528 314.963 230.28 315.575 229.347 316.763 227.535 318.008 225.737 319.27 224.006 319.925 223.107 321.185 222.906 322.088 223.566 322.987 224.221 323.185 225.483 322.528 226.382 321.304 228.063 320.097 229.804 318.945 231.561 318.558 232.152 317.915 232.472 317.257 232.472zm10.09-13.411C326.881 219.061 326.414 218.901 326.034 218.576 325.191 217.851 325.093 216.577 325.819 215.73 327.222 214.095 328.685 212.474 330.167 210.91 330.934 210.099 332.208 210.068 333.019 210.833 333.827 211.601 333.86 212.875 333.095 213.683 331.659 215.199 330.239 216.77 328.879 218.356 328.48 218.824 327.916 219.061 327.347 219.061zm11.729-11.994C338.523 207.067 337.974 206.843 337.575 206.398 336.831 205.571 336.901 204.294 337.728 203.55 339.327 202.113 340.985 200.695 342.659 199.335 343.524 198.632 344.793 198.763 345.496 199.627 346.199 200.49 346.067 201.762 345.204 202.465 343.581 203.785 341.973 205.159 340.424 206.551 340.039 206.895 339.556 207.067 339.076 207.067zm13.177-10.377C351.61 196.69 350.981 196.384 350.589 195.815 349.958 194.897 350.193 193.642 351.111 193.011 352.882 191.793 354.71 190.603 356.544 189.472 357.49 188.888 358.733 189.182 359.319 190.132 359.902 191.081 359.608 192.322 358.661 192.908 356.885 194.003 355.112 195.158 353.396 196.336 353.042 196.576 352.645 196.69 352.253 196.69zM366.659 188.121C365.925 188.121 365.218 187.719 364.862 187.019 364.355 186.026 364.752 184.812 365.744 184.305 367.67 183.322 369.642 182.38 371.602 181.5 372.618 181.046 373.811 181.498 374.267 182.516 374.721 183.532 374.267 184.726 373.251 185.182 371.351 186.033 369.441 186.949 367.575 187.901 367.278 188.049 366.965 188.121 366.659 188.121zm15.408-6.631C381.237 181.49 380.46 180.974 380.166 180.149 379.793 179.099 380.341 177.947 381.39 177.574 383.419 176.854 385.497 176.173 387.562 175.551 388.628 175.231 389.754 175.836 390.074 176.902 390.394 177.968 389.789 179.095 388.723 179.413 386.72 180.015 384.71 180.675 382.741 181.373 382.518 181.452 382.291 181.49 382.067 181.49zM454.52 177.225C454.369 177.225 454.218 177.208 454.066 177.172 452.029 176.704 449.954 176.28 447.896 175.915 446.799 175.718 446.07 174.671 446.266 173.576 446.462 172.479 447.514 171.749 448.604 171.943 450.726 172.321 452.868 172.758 454.969 173.241 456.054 173.49 456.731 174.573 456.482 175.659 456.269 176.594 455.438 177.225 454.52 177.225zM398.201 176.907C397.273 176.907 396.437 176.261 396.234 175.317 395.997 174.229 396.69 173.155 397.778 172.919L398.566 172.751C400.412 172.364 402.293 172.01 404.157 171.702 405.259 171.517 406.294 172.263 406.476 173.361 406.657 174.458 405.916 175.499 404.817 175.68 403.007 175.982 401.181 176.323 399.393 176.699L398.631 176.861C398.485 176.89 398.342 176.907 398.201 176.907zM437.958 174.54C437.893 174.54 437.829 174.537 437.764 174.53 435.689 174.332 433.576 174.181 431.485 174.085 430.373 174.035 429.513 173.091 429.563 171.979 429.613 170.867 430.543 170.016 431.669 170.057 433.827 170.155 436.007 170.31 438.149 170.516 439.258 170.621 440.071 171.608 439.963 172.715 439.86 173.758 438.983 174.54 437.958 174.54zm-23.162-.125C413.759 174.415 412.879 173.622 412.788 172.569 412.695 171.46 413.517 170.485 414.626 170.389 416.778 170.207 418.96 170.076 421.111 170.002 422.199 169.958 423.157 170.834 423.198 171.948 423.236 173.062 422.366 173.995 421.255 174.035 419.168 174.109 417.053 174.236 414.968 174.411 414.911 174.413 414.854 174.415 414.796 174.415z" fill="#fff"></path></g><g opacity=".64"><path opacity=".64" d="M467.676 180.996C467.458 180.996 467.236 180.96 467.019 180.886 466.02 180.541 465.016 180.209 464.007 179.888 462.946 179.551 462.358 178.418 462.695 177.356 463.032 176.295 464.165 175.709 465.226 176.044 466.266 176.374 467.303 176.718 468.336 177.072 469.387 177.435 469.947 178.583 469.583 179.635 469.294 180.472 468.513 180.996 467.676 180.996z" fill="#fff"></path></g></g><g opacity=".64"><g opacity=".64"><path opacity=".64" d="M542.155 246.991C541.407 246.991 540.685 246.572 540.338 245.852 539.877 244.898 539.404 243.952 538.921 243.012 538.412 242.022 538.801 240.805 539.789 240.296 540.778 239.786 541.995 240.174 542.504 241.164 543.004 242.132 543.491 243.11 543.969 244.095 544.454 245.097 544.034 246.304 543.032 246.79 542.748 246.926 542.449 246.991 542.155 246.991z" fill="#fff"></path></g><g opacity=".64"><path opacity=".64" d="M425.44 433.195C424.697 433.195 423.956 433.188 423.215 433.176 422.101 433.157 421.214 432.239 421.233 431.125S422.158 429.097 423.284 429.143C425.342 429.176 427.426 429.162 429.482 429.097 430.593 429.061 431.526 429.934 431.561 431.048 431.597 432.163 430.722 433.093 429.611 433.129 428.227 433.174 426.824 433.195 425.44 433.195zM413.039 432.595C412.975 432.595 412.908 432.593 412.843 432.586 410.726 432.38 408.591 432.122 406.495 431.813 405.393 431.651 404.63 430.627 404.793 429.525 404.956 428.423 405.979 427.66 407.08 427.823 409.11 428.122 411.18 428.373 413.231 428.571 414.34 428.679 415.15 429.664 415.042 430.773 414.942 431.816 414.065 432.595 413.039 432.595zM439.743 432.402C438.73 432.402 437.855 431.639 437.743 430.608 437.618 429.501 438.417 428.504 439.523 428.38 441.565 428.153 443.63 427.873 445.664 427.545 446.761 427.366 447.798 428.117 447.973 429.217 448.15 430.317 447.399 431.352 446.3 431.527 444.203 431.864 442.071 432.153 439.965 432.387 439.891 432.397 439.817 432.402 439.743 432.402zM396.738 429.951C396.59 429.951 396.437 429.934 396.286 429.901 394.219 429.427 392.134 428.896 390.091 428.323 389.02 428.021 388.394 426.909 388.695 425.836 388.996 424.762 390.11 424.136 391.181 424.439 393.16 424.994 395.182 425.511 397.185 425.97 398.27 426.218 398.949 427.299 398.7 428.385 398.488 429.317 397.658 429.951 396.738 429.951zM456.009 429.544C455.098 429.544 454.274 428.925 454.051 428 453.791 426.917 454.458 425.826 455.538 425.566 457.539 425.083 459.554 424.545 461.526 423.968 462.596 423.658 463.715 424.27 464.026 425.339 464.339 426.407 463.725 427.529 462.656 427.842 460.622 428.437 458.545 428.992 456.482 429.489 456.324 429.525 456.164 429.544 456.009 429.544zm15.773-4.88C470.969 424.664 470.204 424.169 469.896 423.364 469.502 422.321 470.023 421.157 471.065 420.762 472.984 420.033 474.913 419.244 476.799 418.419 477.817 417.972 479.008 418.438 479.455 419.459 479.899 420.48 479.436 421.668 478.415 422.115 476.469 422.967 474.478 423.78 472.497 424.533 472.262 424.621 472.021 424.664 471.782 424.664zM486.807 417.816C486.088 417.816 485.392 417.431 485.029 416.752 484.503 415.77 484.873 414.548 485.853 414.022 487.665 413.051 489.477 412.023 491.241 410.964 492.195 410.39 493.435 410.698 494.009 411.655 494.583 412.609 494.272 413.85 493.318 414.421 491.499 415.514 489.628 416.575 487.758 417.577 487.455 417.74 487.13 417.816 486.807 417.816zM500.831 409.101C500.202 409.101 499.581 408.807 499.189 408.257 498.541 407.351 498.751 406.091 499.657 405.443 501.33 404.247 502.994 402.997 504.603 401.725 505.477 401.034 506.744 401.182 507.435 402.055 508.126 402.927 507.978 404.197 507.105 404.888 505.444 406.201 503.728 407.492 502.002 408.726 501.646 408.979 501.235 409.101 500.831 409.101zm12.783-10.432C513.071 398.669 512.533 398.451 512.134 398.023 511.377 397.208 511.424 395.931 512.242 395.173 513.748 393.777 515.239 392.323 516.676 390.853 517.455 390.056 518.731 390.042 519.527 390.821 520.323 391.601 520.338 392.878 519.558 393.674 518.076 395.19 516.537 396.691 514.983 398.133 514.596 398.492 514.106 398.669 513.614 398.669zm11.361-11.979C524.518 386.69 524.059 386.537 523.684 386.221 522.828 385.506 522.716 384.234 523.428 383.381 524.745 381.802 526.041 380.172 527.281 378.529 527.953 377.64 529.217 377.465 530.106 378.137 530.996 378.809 531.17 380.074 530.498 380.963 529.22 382.656 527.881 384.339 526.523 385.968 526.124 386.443 525.551 386.69 524.975 386.69zM534.729 373.367C534.356 373.367 533.981 373.264 533.644 373.049 532.707 372.449 532.432 371.201 533.032 370.263 534.141 368.53 535.222 366.746 536.242 364.962 536.797 363.996 538.03 363.662 538.993 364.216 539.959 364.771 540.294 366.002 539.739 366.968 538.685 368.809 537.571 370.648 536.426 372.437 536.044 373.037 535.394 373.367 534.729 373.367zM542.722 358.913C542.433 358.913 542.139 358.851 541.862 358.719 540.855 358.243 540.425 357.041 540.901 356.034 541.783 354.169 542.629 352.261 543.415 350.365 543.841 349.337 545.019 348.847 546.052 349.277 547.08 349.705 547.567 350.884 547.139 351.914 546.327 353.87 545.454 355.838 544.546 357.76 544.202 358.487 543.478 358.913 542.722 358.913zM548.824 343.56C548.619 343.56 548.409 343.529 548.201 343.46 547.142 343.115 546.563 341.977 546.908 340.918 547.543 338.965 548.141 336.966 548.681 334.974 548.975 333.898 550.087 333.267 551.155 333.556 552.228 333.848 552.864 334.957 552.57 336.031 552.011 338.087 551.394 340.15 550.739 342.166 550.464 343.02 549.675 343.56 548.824 343.56zM552.921 327.55C552.797 327.55 552.673 327.538 552.544 327.514 551.449 327.308 550.729 326.251 550.935 325.159 551.317 323.131 551.655 321.07 551.937 319.033 552.09 317.931 553.108 317.156 554.21 317.311 555.314 317.464 556.084 318.483 555.931 319.585 555.639 321.687 555.292 323.812 554.898 325.907 554.719 326.875 553.873 327.55 552.921 327.55zM554.936 311.142C554.898 311.142 554.857 311.142 554.819 311.14 553.708 311.075 552.859 310.121 552.924 309.01 553.043 306.958 553.113 304.873 553.129 302.817 553.139 301.71 554.04 300.818 555.147 300.818 555.151 300.818 555.159 300.818 555.166 300.818 556.28 300.827 557.174 301.738 557.164 302.853 557.145 304.976 557.073 307.125 556.951 309.241 556.884 310.315 555.998 311.142 554.936 311.142zM554.826 294.625C553.777 294.625 552.893 293.812 552.816 292.75 552.67 290.697 552.474 288.619 552.231 286.579 552.099 285.475 552.888 284.47 553.995 284.339 555.106 284.207 556.103 284.996 556.234 286.103 556.485 288.207 556.688 290.35 556.839 292.468 556.918 293.58 556.081 294.544 554.97 294.623 554.922 294.625 554.874 294.625 554.826 294.625zM552.623 278.254C551.681 278.254 550.839 277.589 550.648 276.63 550.565 276.209 550.479 275.791 550.39 275.37 550.055 273.778 549.687 272.166 549.291 270.578 549.02 269.498 549.678 268.402 550.758 268.132 551.839 267.86 552.933 268.52 553.203 269.6 553.612 271.236 553.992 272.898 554.336 274.54 554.427 274.973 554.516 275.406 554.602 275.841 554.819 276.934 554.109 277.995 553.017 278.213 552.888 278.242 552.754 278.254 552.623 278.254zM548.385 262.289C547.541 262.289 546.755 261.755 546.472 260.911 545.82 258.96 545.11 257 544.364 255.082 543.96 254.044 544.472 252.875 545.512 252.471 546.551 252.067 547.718 252.581 548.122 253.619 548.891 255.596 549.623 257.619 550.297 259.632 550.651 260.689 550.079 261.832 549.025 262.186 548.813 262.255 548.595 262.289 548.385 262.289z" fill="#fff"></path></g><g opacity=".64"><path opacity=".64" d="M380.847 425.221C380.615 425.221 380.378 425.181 380.149 425.097 379.123 424.719 378.105 424.33 377.092 423.926 376.057 423.514 375.55 422.343 375.961 421.307 376.372 420.274 377.546 419.765 378.579 420.176 379.561 420.566 380.55 420.946 381.542 421.312 382.587 421.697 383.122 422.857 382.738 423.902 382.436 424.717 381.667 425.221 380.847 425.221z" fill="#fff"></path></g></g><path d="M377.532 388.751C378.074 389.131 378.801 389.124 379.336 388.734l15.312-11.125C402.854 380.892 411.643 382.89 420.723 383.393L429.904 399.931C430.227 400.512 430.882 400.823 431.534 400.708L453.888 396.758C454.541 396.644 455.05 396.125 455.152 395.47L458.114 376.784C466.473 373.2 474.045 368.31 480.63 362.414L498.827 367.619C499.465 367.801 500.149 367.559 500.529 367.014l13.015-18.605C513.924 347.864 513.917 347.14 513.527 346.604L502.405 331.287C505.687 323.078 507.685 314.287 508.187 305.203L524.723 296.019C525.304 295.696 525.614 295.041 525.5 294.388L521.551 272.027C521.436 271.375 520.918 270.865 520.263 270.762L501.583 267.8C498 259.438 493.112 251.864 487.218 245.276L492.421 227.073C492.603 226.435 492.361 225.751 491.816 225.371l-18.598-13.019C472.675 211.971 471.949 211.979 471.413 212.368l-15.312 11.126C447.896 220.211 439.107 218.212 430.026 217.71L420.845 201.169C420.523 200.588 419.87 200.277 419.215 200.392L396.862 204.342C396.209 204.456 395.7 204.975 395.597 205.63L392.636 224.316C384.277 227.901 376.705 232.79 370.119 238.687L351.925 233.481C351.287 233.3 350.603 233.541 350.223 234.084l-13.015 18.605C336.828 253.231 336.835 253.958 337.225 254.494l11.122 15.317C345.065 278.019 343.067 286.811 342.565 295.895L326.029 305.079C325.448 305.402 325.137 306.057 325.252 306.709L329.201 329.07C329.316 329.723 329.834 330.232 330.489 330.335L349.169 333.298C352.752 341.659 357.64 349.234 363.534 355.821L358.331 374.024C358.149 374.663 358.39 375.347 358.933 375.727l18.599 13.024z" fill="#91b3fa"></path><path opacity=".72" d="M425.409 322.328C417.093 322.328 409.138 317.538 405.517 309.473 403.134 304.168 402.959 298.25 405.027 292.813 407.095 287.375 411.153 283.069 416.457 280.685 427.404 275.767 440.317 280.673 445.233 291.629 450.15 302.582 445.243 315.497 434.293 320.417 431.408 321.713 428.384 322.328 425.409 322.328zM425.349 282.003C422.813 282.003 420.239 282.526 417.779 283.631 413.261 285.661 409.803 289.329 408.044 293.96 406.284 298.592 406.432 303.632 408.462 308.151 412.652 317.481 423.647 321.663 432.974 317.474L433.633 318.947 432.974 317.474C442.3 313.282 446.481 302.284 442.293 292.951 439.207 286.082 432.431 282.003 425.349 282.003z" fill="#fff"></path><path opacity=".72" d="M425.544 355.742C425.391 355.742 425.241 355.742 425.09 355.74 424.555 355.735 424.019 355.723 423.484 355.704 423.049 355.687 422.707 355.331 422.707 354.898 422.707 354.889 422.707 354.877 422.707 354.867 422.724 354.423 423.104 354.081 423.544 354.09 427.358 354.236 431.214 353.966 435.007 353.296 436.248 353.076 437.474 352.816 438.686 352.517 438.691 352.517 438.695 352.515 438.7 352.515 438.703 352.515 438.705 352.515 438.707 352.512 438.712 352.512 438.717 352.51 438.719 352.51 438.722 352.51 438.724 352.507 438.726 352.507 451.356 349.363 462.304 341.855 469.838 331.086 476.253 321.914 479.6 311.226 479.602 300.261 479.602 297.102 479.327 293.92 478.765 290.744 476.258 276.544 468.373 264.17 456.562 255.905 444.75 247.639 430.43 244.463 416.232 246.974 390.09 251.593 371.647 274.426 371.647 300.11 371.647 303.216 371.917 306.365 372.474 309.528 374.175 319.167 378.447 328.145 384.826 335.495 384.958 335.648 385.025 335.837 385.025 336.024 385.025 336.248 384.932 336.473 384.748 336.633 384.413 336.925 383.901 336.889 383.61 336.552 377.039 328.982 372.641 319.733 370.887 309.808 370.31 306.552 370.033 303.307 370.033 300.108c0-26.452 18.995-49.966 45.919-54.724C430.569 242.802 445.323 246.068 457.487 254.582 469.651 263.097 477.773 275.841 480.355 290.465 480.933 293.736 481.218 297.011 481.218 300.266 481.215 311.558 477.769 322.567 471.162 332.014c-8.512 12.168-21.252 20.293-35.87 22.875C432.062 355.456 428.795 355.742 425.544 355.742z" fill="#fff"></path><g opacity=".64"><g opacity=".64"><path opacity=".64" d="M546.066 352.596C545.717 352.596 545.397 352.369 545.292 352.015 545.101 351.363 544.919 350.705 544.752 350.043 544.642 349.61 544.902 349.172 545.335 349.062 545.765 348.952 546.205 349.213 546.315 349.646 546.48 350.289 546.654 350.927 546.838 351.561 546.965 351.989 546.719 352.436 546.293 352.563 546.217 352.584 546.14 352.596 546.066 352.596z" fill="#fff"></path></g><g opacity=".64"><path opacity=".64" d="M544.676 346.674C544.293 346.674 543.951 346.399 543.882 346.009 543.643 344.658 543.447 343.283 543.306 341.923 543.261 341.48 543.583 341.083 544.025 341.036 544.468 340.993 544.864 341.311 544.912 341.755 545.048 343.078 545.237 344.414 545.472 345.727 545.55 346.167 545.256 346.585 544.819 346.662 544.769 346.671 544.721 346.674 544.676 346.674zM543.834 338.587C543.402 338.587 543.043 338.243 543.029 337.805 543.01 337.215 543 336.622 543 336.029 543 335.249 543.017 334.465 543.048 333.678 543.065 333.234 543.406 332.877 543.887 332.906 544.331 332.925 544.678 333.301 544.659 333.745 544.628 334.508 544.613 335.271 544.613 336.029 544.613 336.607 544.623 337.181 544.64 337.755 544.654 338.2 544.305 338.573 543.858 338.587 543.853 338.587 543.844 338.587 543.834 338.587zM544.166 330.462C544.135 330.462 544.107 330.46 544.076 330.458 543.633 330.407 543.316 330.008 543.363 329.566 543.519 328.198 543.722 326.826 543.97 325.484 544.052 325.047 544.47 324.755 544.912 324.839 545.35 324.92 545.639 325.341 545.558 325.778 545.316 327.081 545.115 328.413 544.967 329.743 544.922 330.159 544.573 330.462 544.166 330.462zM545.653 322.472C545.586 322.472 545.517 322.464 545.448 322.445 545.017 322.333 544.759 321.891 544.872 321.46 545.218 320.14 545.617 318.811 546.062 317.51 546.205 317.087 546.664 316.865 547.085 317.008 547.506 317.151 547.733 317.611 547.587 318.031 547.154 319.296 546.767 320.587 546.43 321.869 546.337 322.232 546.009 322.472 545.653 322.472zM548.28 314.78C548.175 314.78 548.067 314.758 547.965 314.715 547.556 314.54 547.365 314.067 547.539 313.656 548.074 312.398 548.665 311.14 549.291 309.919 549.494 309.524 549.982 309.366 550.376 309.569 550.773 309.773 550.928 310.258 550.725 310.655 550.113 311.846 549.54 313.068 549.021 314.287 548.892 314.595 548.593 314.78 548.28 314.78zM552.002 307.544C551.858 307.544 551.712 307.506 551.583 307.427 551.203 307.195 551.081 306.698 551.316 306.318 552.03 305.148 552.795 303.989 553.594 302.875 553.852 302.514 554.356 302.43 554.719 302.688 555.083 302.946 555.164 303.451 554.906 303.814 554.131 304.897 553.386 306.024 552.692 307.159 552.539 307.408 552.274 307.544 552.002 307.544zM556.732 300.928C556.55 300.928 556.369 300.866 556.218 300.742 555.876 300.457 555.828 299.948 556.113 299.606 556.985 298.554 557.91 297.519 558.862 296.529 559.17 296.208 559.682 296.196 560.002 296.505 560.322 296.813 560.334 297.325 560.026 297.645 559.101 298.609 558.204 299.616 557.356 300.637 557.193 300.828 556.964 300.928 556.732 300.928zM562.363 295.063C562.143 295.063 561.924 294.972 561.763 294.795 561.465 294.465 561.491 293.954 561.823 293.657 562.839 292.741 563.903 291.849 564.983 291.008 565.334 290.733 565.841 290.797 566.114 291.149 566.386 291.5 566.324 292.007 565.973 292.282 564.921 293.1 563.888 293.968 562.901 294.857 562.748 294.996 562.557 295.063 562.363 295.063zM568.776 290.071C568.516 290.071 568.26 289.944 568.105 289.712 567.856 289.341 567.957 288.842 568.327 288.593 569.462 287.833 570.643 287.103 571.834 286.424 572.218 286.204 572.713 286.338 572.933 286.725 573.153 287.113 573.019 287.605 572.632 287.825 571.475 288.483 570.328 289.193 569.223 289.932 569.085 290.025 568.929 290.071 568.776 290.071zM626.764 287.419C626.635 287.419 626.501 287.388 626.379 287.321 625.21 286.685 624.001 286.082 622.789 285.535 622.382 285.351 622.203 284.872 622.387 284.466 622.569 284.059 623.044 283.88 623.456 284.064 624.703 284.631 625.946 285.248 627.149 285.903 627.541 286.116 627.684 286.606 627.471 286.998 627.325 287.266 627.048 287.419 626.764 287.419zm-50.927-1.368C575.536 286.051 575.247 285.881 575.108 285.592 574.917 285.19 575.087 284.707 575.488 284.516 576.724 283.928 577.996 283.376 579.272 282.878 579.683 282.718 580.154 282.921 580.317 283.337 580.479 283.753 580.273 284.22 579.858 284.382 578.619 284.865 577.384 285.401 576.184 285.975 576.071 286.027 575.954 286.051 575.837 286.051zM619.359 284.062C619.265 284.062 619.172 284.045 619.081 284.012 617.831 283.553 616.55 283.134 615.271 282.766 614.844 282.644 614.595 282.197 614.719 281.769 614.841 281.341 615.293 281.095 615.716 281.217 617.033 281.594 618.352 282.025 619.638 282.498 620.057 282.651 620.272 283.115 620.116 283.533 619.995 283.861 619.686 284.062 619.359 284.062zM583.402 283.098C583.058 283.098 582.738 282.876 582.633 282.529 582.501 282.104 582.74 281.652 583.166 281.52 584.473 281.116 585.812 280.755 587.148 280.447 587.583 280.349 588.015 280.619 588.116 281.052 588.216 281.484 587.944 281.919 587.511 282.02 586.213 282.319 584.911 282.67 583.641 283.062 583.56 283.086 583.481 283.098 583.402 283.098zM611.545 281.819C611.49 281.819 611.435 281.814 611.378 281.802 610.075 281.53 608.746 281.3 607.427 281.121 606.984 281.061 606.676 280.655 606.736 280.212 606.796 279.772 607.197 279.457 607.644 279.521 609.002 279.705 610.369 279.94 611.71 280.222 612.147 280.313 612.425 280.741 612.334 281.176 612.253 281.558 611.918 281.819 611.545 281.819zM591.321 281.271C590.929 281.271 590.587 280.987 590.525 280.588 590.458 280.148 590.759 279.734 591.199 279.667 592.55 279.459 593.927 279.296 595.294 279.184 595.738 279.148 596.128 279.478 596.164 279.923 596.2 280.368 595.87 280.757 595.425 280.793 594.096 280.901 592.758 281.059 591.445 281.262 591.402 281.269 591.362 281.271 591.321 281.271zM603.488 280.729C603.471 280.729 603.452 280.729 603.437 280.726 602.261 280.652 601.071 280.614 599.897 280.614L599.429 280.616C599.426 280.616 599.424 280.616 599.422 280.616 598.98 280.616 598.619 280.26 598.616 279.815 598.614 279.371 598.972 279.007 599.417 279.002L599.895 279C601.104 279 602.331 279.038 603.538 279.115 603.982 279.143 604.322 279.526 604.293 279.971 604.264 280.399 603.911 280.729 603.488 280.729z" fill="#fff"></path></g><g opacity=".64"><path opacity=".64" d="M631.971 290.635C631.811 290.635 631.653 290.587 631.512 290.491 630.97 290.114 630.417 289.745 629.86 289.387 629.485 289.145 629.378 288.645 629.619 288.272 629.86 287.897 630.36 287.789 630.733 288.031 631.307 288.399 631.873 288.779 632.432 289.167 632.798 289.42 632.889 289.925 632.636 290.29 632.475 290.513 632.224 290.635 631.971 290.635z" fill="#fff"></path></g></g><g opacity=".64"><g opacity=".64"><path opacity=".64" d="M655.347 327.555C654.959 327.555 654.618 327.275 654.553 326.881 654.445 326.225 654.324 325.575 654.192 324.927 654.104 324.49 654.383 324.064 654.821 323.975 655.253 323.889 655.684 324.169 655.772 324.604 655.908 325.271 656.03 325.941 656.143 326.615 656.217 327.055 655.918 327.471 655.48 327.543 655.435 327.552 655.39 327.555 655.347 327.555z" fill="#fff"></path></g><g opacity=".64"><path opacity=".64" d="M601.367 392.926C600.929 392.926 600.571 392.577 600.561 392.139 600.552 391.695 600.903 391.324 601.348 391.314 602.655 391.283 603.979 391.204 605.284 391.08 605.734 391.037 606.121 391.365 606.164 391.807 606.207 392.252 605.882 392.644 605.437 392.687 604.096 392.816 602.732 392.895 601.386 392.928 601.379 392.926 601.374 392.926 601.367 392.926zM597.365 392.881C597.354 392.881 597.339 392.881 597.327 392.881 596.892 392.859 596.457 392.835 596.022 392.804 595.107 392.742 594.184 392.656 593.281 392.548 592.838 392.496 592.523 392.096 592.573 391.654 592.626 391.212 593.027 390.894 593.469 390.946 594.347 391.049 595.243 391.133 596.132 391.195 596.555 391.224 596.981 391.25 597.401 391.269 597.846 391.29 598.19 391.668 598.169 392.113 598.152 392.543 597.793 392.881 597.365 392.881zM609.326 392.166C608.939 392.166 608.6 391.888 608.533 391.494 608.459 391.054 608.755 390.638 609.195 390.564 610.488 390.346 611.788 390.078 613.057 389.77 613.49 389.662 613.925 389.93 614.033 390.363 614.138 390.796 613.873 391.231 613.44 391.338 612.135 391.656 610.796 391.931 609.465 392.156 609.417 392.161 609.369 392.166 609.326 392.166zM589.42 391.948C589.37 391.948 589.32 391.943 589.27 391.934 587.941 391.68 586.609 391.379 585.311 391.035 584.881 390.92 584.623 390.48 584.738 390.047 584.853 389.617 585.292 389.363 585.725 389.473 586.987 389.808 588.28 390.102 589.573 390.346 590.011 390.43 590.298 390.851 590.216 391.288 590.137 391.678 589.8 391.948 589.42 391.948zM617.092 390.274C616.75 390.274 616.435 390.057 616.325 389.712 616.189 389.289 616.423 388.835 616.846 388.699 618.089 388.299 619.337 387.85 620.553 387.362 620.964 387.195 621.438 387.395 621.603 387.809 621.77 388.223 621.567 388.691 621.156 388.859 619.903 389.363 618.62 389.825 617.341 390.236 617.257 390.262 617.173 390.274 617.092 390.274zm-35.407-.375C581.599 389.899 581.511 389.885 581.423 389.856 580.149 389.418 578.872 388.928 577.632 388.4 577.223 388.225 577.032 387.752 577.206 387.34 577.381 386.929 577.856 386.74 578.265 386.915 579.47 387.429 580.71 387.905 581.948 388.328 582.369 388.471 582.594 388.931 582.448 389.354 582.333 389.688 582.02 389.899 581.685 389.899zM624.509 387.295C624.21 387.295 623.923 387.128 623.785 386.841 623.589 386.441 623.756 385.958 624.155 385.762 625.331 385.189 626.503 384.564 627.636 383.909 628.02 383.685 628.515 383.818 628.737 384.203 628.962 384.588 628.831 385.083 628.443 385.306 627.279 385.98 626.075 386.623 624.863 387.214 624.748 387.269 624.626 387.295 624.509 387.295zM574.324 386.764C574.199 386.764 574.075 386.736 573.955 386.676 572.758 386.061 571.565 385.394 570.413 384.694 570.033 384.462 569.911 383.967 570.143 383.584 570.372 383.204 570.867 383.082 571.252 383.314 572.373 383.995 573.53 384.643 574.694 385.241 575.091 385.444 575.246 385.93 575.043 386.327 574.9 386.604 574.618 386.764 574.324 386.764zM631.426 383.288C631.168 383.288 630.913 383.163 630.757 382.934 630.509 382.566 630.604 382.063 630.972 381.812 632.055 381.078 633.126 380.294 634.156 379.486 634.505 379.209 635.014 379.271 635.289 379.62S635.504 380.478 635.153 380.753C634.094 381.588 632.992 382.393 631.876 383.149 631.74 383.242 631.582 383.288 631.426 383.288zM637.713 378.341C637.493 378.341 637.275 378.252 637.115 378.075 636.816 377.745 636.84 377.236 637.17 376.935 638.138 376.057 639.087 375.129 639.996 374.18 640.304 373.857 640.815 373.845 641.136 374.154 641.458 374.462 641.47 374.972 641.162 375.294 640.23 376.272 639.252 377.224 638.258 378.13 638.1 378.271 637.906 378.341 637.713 378.341zM643.234 372.554C643.053 372.554 642.871 372.495 642.72 372.37 642.376 372.086 642.331 371.579 642.613 371.234 643.449 370.223 644.26 369.171 645.02 368.107 645.278 367.746 645.785 367.662 646.146 367.918 646.509 368.176 646.593 368.681 646.332 369.044 645.55 370.139 644.719 371.222 643.856 372.265 643.698 372.454 643.469 372.554 643.234 372.554zM647.886 366.041C647.742 366.041 647.597 366.003 647.465 365.924 647.085 365.692 646.965 365.195 647.197 364.814 647.883 363.691 648.533 362.533 649.133 361.374 649.337 360.979 649.827 360.824 650.221 361.027 650.618 361.233 650.771 361.718 650.568 362.115 649.951 363.308 649.279 364.501 648.574 365.654 648.424 365.902 648.158 366.041 647.886 366.041zM651.562 358.928C651.457 358.928 651.347 358.906 651.244 358.861 650.835 358.686 650.646 358.21 650.821 357.802 651.337 356.599 651.815 355.36 652.243 354.122 652.389 353.701 652.845 353.476 653.269 353.624 653.689 353.77 653.914 354.229 653.768 354.65 653.326 355.925 652.834 357.199 652.303 358.438 652.171 358.746 651.873 358.928 651.562 358.928zM654.179 351.37C654.11 351.37 654.041 351.36 653.969 351.341 653.539 351.226 653.283 350.784 653.398 350.353 653.735 349.091 654.033 347.797 654.28 346.509 654.363 346.071 654.786 345.787 655.224 345.868 655.661 345.952 655.946 346.375 655.864 346.812 655.609 348.139 655.303 349.469 654.954 350.77 654.86 351.131 654.535 351.37 654.179 351.37zM655.692 343.515C655.661 343.515 655.628 343.513 655.594 343.51 655.152 343.458 654.837 343.056 654.889 342.614 655.002 341.676 655.092 340.727 655.154 339.795 655.181 339.424 655.202 339.053 655.221 338.683 655.245 338.238 655.623 337.899 656.068 337.918 656.512 337.939 656.854 338.319 656.832 338.764 656.813 339.144 656.792 339.524 656.765 339.907 656.699 340.868 656.608 341.844 656.491 342.807 656.443 343.214 656.094 343.515 655.692 343.515zM656.084 335.524C655.647 335.524 655.288 335.175 655.279 334.735 655.25 333.427 655.176 332.103 655.054 330.795 655.013 330.35 655.341 329.958 655.783 329.917 656.225 329.874 656.62 330.202 656.66 330.647 656.785 331.99 656.861 333.356 656.89 334.702 656.899 335.146 656.546 335.517 656.101 335.527 656.096 335.524 656.091 335.524 656.084 335.524z" fill="#fff"></path></g><g opacity=".64"><path opacity=".64" d="M567.454 382.585C567.292 382.585 567.129 382.537 566.988 382.436 566.431 382.042 565.884 381.635 565.344 381.222 564.99 380.952 564.923 380.445 565.193 380.091 565.466 379.737 565.97 379.67 566.324 379.943 566.847 380.344 567.38 380.739 567.92 381.121 568.284 381.38 568.37 381.884 568.112 382.248 567.954 382.465 567.708 382.585 567.454 382.585z" fill="#fff"></path></g></g><path d="M569.637 366.658C569.819 366.88 570.123 366.964 570.393 366.864L578.089 364.033C581.122 366.371 584.552 368.241 588.279 369.522L590.155 377.504C590.222 377.783 590.456 377.991 590.743 378.02L600.531 379.012C600.818 379.041 601.091 378.886 601.21 378.625L604.65 371.184C608.558 370.677 612.294 369.532 615.733 367.851L622.705 372.169C622.949 372.32 623.262 372.301 623.487 372.119L631.11 365.898C631.332 365.716 631.416 365.412 631.315 365.142L628.485 357.443C630.823 354.409 632.692 350.978 633.973 347.247L641.952 345.371C642.231 345.304 642.439 345.069 642.468 344.782L643.46 334.991C643.489 334.704 643.333 334.431 643.073 334.312L635.634 330.871C635.128 326.962 633.983 323.225 632.302 319.784L636.619 312.809C636.77 312.565 636.751 312.252 636.569 312.027L630.349 304.402C630.168 304.18 629.864 304.096 629.594 304.197L621.898 307.028C618.864 304.689 615.434 302.82 611.708 301.538L609.832 293.557C609.765 293.277 609.53 293.069 609.244 293.04L599.456 292.048C599.169 292.019 598.896 292.175 598.777 292.435L595.337 299.876C591.429 300.383 587.693 301.528 584.254 303.209L577.281 298.891C577.037 298.74 576.724 298.76 576.5 298.941L568.877 305.163C568.655 305.344 568.571 305.648 568.672 305.918L571.502 313.617C569.164 316.652 567.295 320.083 566.014 323.813L558.035 325.69C557.755 325.754 557.547 325.991 557.519 326.278L556.527 336.069C556.498 336.356 556.653 336.629 556.914 336.748L564.352 340.189C564.859 344.098 566.004 347.833 567.684 351.276L563.368 358.251C563.217 358.495 563.236 358.808 563.418 359.033L569.637 366.658z" fill="#91b3fa"></path><path opacity=".56" d="M599.972 345.076C597.938 345.076 595.964 344.426 594.3 343.19 592.254 341.669 590.922 339.443 590.552 336.921 589.785 331.713 593.396 326.854 598.6 326.087 603.808 325.319 608.665 328.932 609.43 334.137 609.803 336.66 609.17 339.175 607.649 341.222 606.129 343.269 603.904 344.601 601.382 344.971 600.911 345.041 600.44 345.076 599.972 345.076zM599.996 327.596C599.613 327.596 599.224 327.624 598.834 327.682 594.51 328.32 591.511 332.358 592.146 336.684 592.455 338.778 593.561 340.629 595.261 341.894 596.96 343.156 599.049 343.682 601.146 343.374 603.239 343.066 605.089 341.959 606.354 340.259 607.618 338.558 608.144 336.469 607.833 334.372 607.255 330.436 603.861 327.596 599.996 327.596z" fill="#fff"></path><path opacity=".56" d="M600.187 359.939C599.35 359.939 598.511 359.896 597.667 359.812 596.085 359.652 594.522 359.339 593.013 358.885 592.987 358.878 592.963 358.87 592.939 358.861 592.81 358.823 592.684 358.782 592.554 358.739 592.213 358.629 591.998 358.313 591.998 357.971 591.998 357.89 592.01 357.804 592.036 357.723 592.172 357.299 592.626 357.068 593.052 357.204 594.593 357.704 596.2 358.041 597.83 358.206 598.14 358.237 598.451 358.263 598.76 358.282 602.797 358.526 606.743 357.723 610.295 355.96 611.741 355.243 613.123 354.366 614.413 353.338 614.49 353.278 614.564 353.218 614.638 353.156 619.383 349.282 622.337 343.792 622.954 337.695 623.035 336.906 623.073 336.12 623.073 335.338 623.073 330.075 621.278 325.013 617.905 320.881 614.033 316.135 608.545 313.18 602.45 312.563 589.863 311.289 578.6 320.489 577.326 333.073 577.247 333.851 577.209 334.625 577.209 335.4 577.209 338.757 577.945 342.078 579.372 345.117 579.425 345.227 579.449 345.344 579.449 345.459 579.449 345.763 579.277 346.052 578.985 346.191 578.583 346.382 578.101 346.205 577.912 345.803 576.382 342.547 575.596 338.994 575.596 335.4 575.596 334.57 575.636 333.741 575.72 332.908 577.085 319.44 589.148 309.591 602.613 310.956 609.136 311.616 615.011 314.78 619.156 319.861 622.765 324.284 624.684 329.702 624.687 335.333 624.687 336.17 624.643 337.011 624.56 337.856 623.9 344.381 620.738 350.258 615.659 354.404 611.237 358.017 605.82 359.939 600.187 359.939z" fill="#fff"></path><g opacity=".64"><g opacity=".64"><path opacity=".64" d="M424.476 140.914C423.36 140.914 422.333 140.183 422.003 139.061 421.609 137.712 421.236 136.342 420.893 134.985 420.545 133.603 421.382 132.202 422.764 131.854 424.149 131.505 425.546 132.343 425.894 133.725 426.218 135.018 426.576 136.324 426.952 137.608 427.352 138.975 426.57 140.409 425.203 140.81 424.959 140.88 424.714 140.914 424.476 140.914z" fill="#fff"></path></g><g opacity=".64"><path opacity=".64" d="M420.956 123.705C419.669 123.705 418.554 122.742 418.398 121.43 418.065 118.633 417.839 115.786 417.729 112.973 417.674 111.551 418.78 110.349 420.201 110.294 421.617 110.224 422.824 111.346 422.879 112.768 422.986 115.446 423.2 118.156 423.518 120.822 423.686 122.237 422.677 123.519 421.262 123.687 421.158 123.702 421.057 123.705 420.956 123.705zM420.614 102.005C420.541 102.005 420.467 102.002 420.391 101.996 418.973 101.874 417.921 100.626 418.043 99.2073 418.285 96.3912 418.636 93.5628 419.092 90.7957 419.324 89.3891 420.657 88.4413 422.054 88.6706 423.46 88.903 424.41 90.23 424.181 91.6334 423.747 94.2691 423.411 96.966 423.182 99.6476 423.065 100.99 421.937 102.005 420.614 102.005zM424.652 80.6901C424.407 80.6901 424.16 80.6565 423.912 80.5831 422.549 80.1764 421.769 78.7393 422.179 77.3726 422.983 74.6788 423.906 71.9789 424.921 69.3493 425.434 68.0223 426.923 67.3587 428.256 67.8724 429.585 68.3861 430.245 69.8783 429.732 71.2083 428.766 73.7156 427.886 76.2871 427.122 78.8494 426.788 79.9655 425.761 80.6901 424.652 80.6901zM432.969 60.6411C432.553 60.6411 432.134 60.5402 431.743 60.3292 430.49 59.6504 430.028 58.0849 430.704 56.8313 432.049 54.3515 433.507 51.8962 435.038 49.5357 435.815 48.3402 437.413 48.0008 438.605 48.7774 439.8 49.554 440.14 51.1502 439.366 52.3457 437.908 54.5931 436.521 56.9291 435.24 59.2927 434.769 60.1519 433.883 60.6411 432.969 60.6411zM445.22 42.7233C444.63 42.7233 444.04 42.5215 443.554 42.1117 442.466 41.1914 442.331 39.5647 443.251 38.4762 445.07 36.3267 446.996 34.223 448.976 32.2202 449.979 31.2082 451.611 31.199 452.623 32.2019 453.635 33.2048 453.644 34.8376 452.641 35.8497 450.755 37.7576 448.918 39.7604 447.185 41.809 446.678 42.4114 445.95 42.7233 445.22 42.7233zm15.631-15.0528C460.087 27.6705 459.326 27.3311 458.819 26.6798 457.941 25.5576 458.14 23.9371 459.259 23.0595 461.475 21.3228 463.786 19.6533 466.13 18.0969 467.316 17.3081 468.915 17.6291 469.703 18.8186 470.492 20.0049 470.171 21.6071 468.982 22.3929 466.751 23.8759 464.547 25.469 462.435 27.1231 461.967 27.4931 461.408 27.6705 460.851 27.6705zM479.2 16.1095C478.25 16.1095 477.336 15.5836 476.886 14.6754 476.254 13.4004 476.776 11.8502 478.054 11.2203 480.579 9.96972 483.183 8.80475 485.79 7.75903 487.117 7.227 488.615 7.87217 489.144 9.19307 489.672 10.514 489.03 12.0153 487.71 12.5473 485.225 13.5441 482.749 14.651 480.343 15.8435 479.974 16.0239 479.582 16.1095 479.2 16.1095zM571.229 15.2381C570.862 15.2381 570.486 15.1585 570.132 14.9904 567.708 13.8468 565.205 12.7858 562.698 11.8379 561.365 11.3334 560.696 9.84434 561.2 8.51427 561.705 7.18113 563.19 6.50846 564.523 7.01297 567.158 8.00976 569.783 9.12275 572.33 10.3244 573.616 10.9329 574.17 12.4678 573.564 13.7581 573.121 14.6907 572.195 15.2381 571.229 15.2381zM499.518 8.52957C498.371 8.52957 497.326 7.75904 497.023 6.59713 496.666 5.21813 497.494 3.8116 498.873 3.45386 501.596 2.74754 504.384 2.14214 507.159 1.64986 508.556 1.40219 509.898 2.33782 510.146 3.74128 510.393 5.14474 509.458 6.48094 508.055 6.72861 505.414 7.19643 502.761 7.77432 500.166 8.44395 499.949 8.50204 499.732 8.52957 499.518 8.52957zM550.756 8.05868C550.557 8.05868 550.359 8.03728 550.157 7.98836 547.546 7.36766 544.881 6.84174 542.234 6.4259 540.828 6.20575 539.865 4.88484 540.085 3.47832 540.305 2.07181 541.635 1.11169 543.032 1.32879 545.813 1.76603 548.61 2.31642 551.352 2.9677 552.737 3.29793 553.592 4.68915 553.262 6.07427 552.981 7.26369 551.923 8.05868 550.756 8.05868zM520.963 5.27929C519.597 5.27929 518.457 4.20298 518.389 2.82092 518.322 1.39911 519.419.191341 520.844.124073 522.552.041516 524.325-.0104529 525.997.00177773 527.101.00177773 528.21.0170578 529.323.0506919 530.747.093499 531.866 1.28293 531.823 2.70779 531.78 4.13266 530.564 5.22729 529.167 5.20589 528.097 5.17225 527.033 5.17838 525.967 5.15697 524.344 5.15697 522.705 5.19672 521.088 5.27316 521.045 5.27928 521.006 5.27929 520.963 5.27929z" fill="#fff"></path></g><g opacity=".64"><path opacity=".64" d="M586.484 24.0594C585.977 24.0594 585.463 23.9095 585.014 23.5977 583.923 22.8363 582.795 22.0872 581.667 21.3656 580.466 20.5981 580.117 19.0051 580.881 17.8034 581.649 16.6018 583.241 16.2532 584.442 17.0176 585.625 17.7759 586.811 18.5648 587.957 19.3628 589.128 20.1762 589.415 21.7845 588.602 22.9525 588.101 23.6741 587.3 24.0594 586.484 24.0594z" fill="#fff"></path></g></g><g opacity=".64"><g opacity=".64"><path opacity=".64" d="M630.621 94.0092C629.377 94.0092 628.285 93.1072 628.077 91.8413 627.867 90.5326 627.622 89.2025 627.353 87.8847 627.069 86.4873 627.971 85.1267 629.367 84.8423 630.758 84.561 632.124 85.4599 632.409 86.8573 632.69 88.2424 632.947 89.6428 633.167 91.0157 633.393 92.4222 632.439 93.7462 631.033 93.9755 630.899 93.9969 630.758 94.0092 630.621 94.0092z" fill="#fff"></path></g><g opacity=".64"><path opacity=".64" d="M525.298 217C525.292 217 525.283 217 525.277 217 523.07 216.982 520.832 216.893 518.623 216.74 518.06 216.7 517.501 216.658 516.941 216.612 515.523 216.489 514.469 215.242 514.591 213.823 514.713 212.404 515.96 211.356 517.379 211.472 517.91 211.518 518.442 211.557 518.977 211.594 521.086 211.741 523.22 211.823 525.323 211.842 526.747 211.854 527.89 213.019 527.878 214.444 527.863 215.859 526.71 217 525.298 217zM538.503 216.291C537.213 216.291 536.097 215.324 535.944 214.01 535.779 212.594 536.791 211.313 538.206 211.148 540.829 210.842 543.47 210.429 546.053 209.922 547.45 209.646 548.807 210.558 549.079 211.955 549.354 213.352 548.443 214.707 547.046 214.982 544.332 215.514 541.559 215.948 538.805 216.269 538.701 216.285 538.601 216.291 538.503 216.291zM504.073 214.695C503.896 214.695 503.715 214.676 503.535 214.639 500.821 214.065 498.097 213.38 495.444 212.6 494.078 212.199 493.295 210.765 493.696 209.399 494.096 208.032 495.533 207.252 496.896 207.65 499.424 208.393 502.016 209.047 504.602 209.594 505.996 209.888 506.885 211.258 506.592 212.652 506.335 213.863 505.265 214.695 504.073 214.695zM559.343 211.674C558.261 211.674 557.255 210.989 556.895 209.903 556.445 208.552 557.179 207.093 558.533 206.644 561.036 205.815 563.537 204.879 565.967 203.858 567.278 203.308 568.791 203.926 569.341 205.24 569.891 206.555 569.274 208.066 567.96 208.616 565.407 209.686 562.782 210.671 560.153 211.539 559.884 211.631 559.612 211.674 559.343 211.674zM483.734 208.182C483.389 208.182 483.04 208.111 482.704 207.965 480.167 206.855 477.639 205.635 475.191 204.329 473.935 203.659 473.458 202.097 474.127 200.84 474.797 199.584 476.359 199.107 477.615 199.776 479.944 201.018 482.353 202.183 484.767 203.238 486.073 203.806 486.669 205.329 486.1 206.635 485.675 207.604 484.728 208.182 483.734 208.182zm95.08-5.226C577.921 202.956 577.053 202.491 576.576 201.663 575.867 200.428 576.292 198.853 577.527 198.14 579.81 196.826 582.075 195.407 584.254 193.918 585.431 193.114 587.033 193.419 587.837 194.597 588.641 195.774 588.335 197.379 587.161 198.18 584.869 199.743 582.494 201.235 580.097 202.614 579.694 202.843 579.251 202.956 578.814 202.956zm17.34-12.451C595.439 190.505 594.729 190.209 594.219 189.631 593.278 188.564 593.378 186.934 594.448 185.989 596.426 184.243 598.361 182.4 600.201 180.507 601.191 179.486 602.826 179.464 603.847 180.455 604.868 181.449 604.89 183.082 603.896 184.103 601.965 186.09 599.932 188.026 597.856 189.857 597.37 190.294 596.762 190.505 596.154 190.505zm14.51-15.661C610.123 174.844 609.575 174.673 609.111 174.324 607.974 173.465 607.751 171.848 608.607 170.713 610.199 168.604 611.727 166.408 613.149 164.188 613.916 162.99 615.515 162.641 616.71 163.409 617.908 164.176 618.256 165.772 617.489 166.971 615.997 169.301 614.393 171.606 612.721 173.82 612.216 174.49 611.443 174.844 610.664 174.844zm11.083-18.257C621.374 156.587 620.998 156.508 620.641 156.336 619.354 155.725 618.81 154.187 619.421 152.899 620.555 150.518 621.609 148.059 622.557 145.592 623.067 144.262 624.556 143.598 625.889 144.109 627.218 144.619 627.882 146.112 627.371 147.442 626.378 150.031 625.268 152.615 624.079 155.116 623.636 156.043 622.71 156.587 621.747 156.587zM628.921 136.471C628.716 136.471 628.511 136.446 628.303 136.394 626.922 136.055 626.075 134.658 626.414 133.276 627.044 130.719 627.579 128.099 628.01 125.491 628.242 124.084 629.563 123.133 630.975 123.369 632.381 123.601 633.328 124.928 633.099 126.335 632.647 129.071 632.081 131.82 631.421 134.508 631.134 135.682 630.079 136.471 628.921 136.471zM631.904 115.327C631.867 115.327 631.834 115.327 631.797 115.324 630.373 115.266 629.266 114.067 629.324 112.643 629.379 111.23 629.41 109.805 629.41 108.405 629.41 107.163 629.389 105.925 629.346 104.693 629.294 103.268 630.406 102.072 631.831 102.023 633.267 101.977 634.45 103.084 634.499 104.509 634.545 105.787 634.57 107.099 634.57 108.408 634.57 109.878 634.539 111.374 634.481 112.853 634.423 114.242 633.28 115.327 631.904 115.327z" fill="#fff"></path></g><g opacity=".64"><path opacity=".64" d="M465.076 197.657C464.562 197.657 464.042 197.504 463.59 197.183 462.447 196.376 461.304 195.532 460.188 194.679 459.057 193.814 458.843 192.193 459.711 191.062 460.576 189.931 462.196 189.717 463.327 190.585 464.388 191.398 465.479 192.199 466.567 192.97 467.732 193.792 468.007 195.401 467.185 196.566 466.68 197.275 465.883 197.657 465.076 197.657z" fill="#fff"></path></g></g><path d="M468.928 166.378C469.27 166.797 469.842 166.956 470.352 166.766L484.868 161.424C490.59 165.833 497.058 169.362 504.088 171.777L507.628 186.827C507.753 187.356 508.197 187.748 508.738 187.8L527.197 189.671C527.738 189.726 528.251 189.432 528.477 188.94L534.963 174.905C542.336 173.948 549.379 171.79 555.868 168.619L569.02 176.761C569.482 177.046 570.072 177.009 570.494 176.667l14.375-11.733C585.288 164.592 585.447 164.02 585.257 163.51L579.92 148.989C584.328 143.265 587.855 136.795 590.27 129.762L605.318 126.222C605.847 126.096 606.238 125.653 606.29 125.112L608.161 106.646C608.216 106.108 607.922 105.592 607.43 105.365L593.4 98.877C592.443 91.5019 590.285 84.4571 587.116 77.9657L595.255 64.8087C595.54 64.347 595.503 63.7568 595.161 63.3349L583.429 48.9548C583.087 48.5328 582.515 48.3769 582.005 48.5664l-14.516 5.3417C561.767 49.499 555.299 45.9705 548.269 43.555L544.729 28.5021C544.604 27.9732 544.161 27.5818 543.62 27.5298L525.161 25.6585C524.623 25.6035 524.106 25.897 523.88 26.3893L517.394 40.4239C510.021 41.381 502.979 43.5397 496.49 46.7104l-13.15-8.1425C482.879 38.2836 482.289 38.3203 481.867 38.6627L467.491 50.3949C467.073 50.7374 466.914 51.3091 467.103 51.8198L472.44 66.3405C468.032 72.0645 464.505 78.5344 462.09 85.567l-15.047 3.5408C446.514 89.2332 446.126 89.6765 446.071 90.2177L444.2 108.683C444.145 109.221 444.438 109.738 444.93 109.964l14.03 6.488C459.917 123.827 462.075 130.872 465.245 137.364L457.105 150.521C456.821 150.982 456.857 151.573 457.2 151.994l11.728 14.384z" fill="#91b3fa"></path><path opacity=".56" d="M526.132 127.246C521.96 127.246 517.913 125.916 514.502 123.378 510.308 120.259 507.576 115.694 506.814 110.521 505.24 99.8432 512.647 89.8753 523.32 88.3006 528.492 87.5331 533.649 88.8357 537.845 91.9545 542.042 95.0733 544.772 99.6383 545.533 104.812 546.294 109.985 544.998 115.144 541.88 119.342 538.762 123.54 534.199 126.27 529.027 127.032 528.061 127.176 527.092 127.246 526.132 127.246zM526.203 94.2813C525.546 94.2813 524.885 94.3303 524.225 94.4281 516.926 95.5044 511.864 102.32 512.94 109.622 513.463 113.159 515.327 116.281 518.197 118.412 521.064 120.544 524.592 121.43 528.128 120.91 531.665 120.388 534.786 118.522 536.916 115.651 539.047 112.78 539.936 109.255 539.413 105.717 538.891 102.179 537.026 99.0574 534.156 96.9262 531.824 95.1925 529.058 94.2813 526.203 94.2813z" fill="#fff"></path><path opacity=".56" d="M526.544 153.214C524.985 153.214 523.417 153.135 521.843 152.976 518.591 152.646 515.382 151.973 512.3 150.973 511.863 150.833 511.588 150.429 511.588 149.992 511.588 149.885 511.604 149.778 511.637 149.674 511.811 149.132 512.392 148.836 512.936 149.01 515.877 149.964 518.946 150.606 522.051 150.921 533.682 152.098 545.058 148.68 554.109 141.29 563.16 133.902 568.793 123.43 569.97 111.802 570.12 110.306 570.196 108.823 570.196 107.353 570.193 85.197 553.366 66.1448 530.866 63.8669c-23.991-2.4339-45.488 15.117-47.921 39.1161C482.795 104.463 482.721 105.946 482.721 107.423 482.721 113.826 484.124 120.158 486.848 125.959 486.915 126.099 486.946 126.249 486.946 126.396 486.946 126.784 486.726 127.154 486.353 127.328 485.836 127.57 485.225 127.35 484.98 126.833 482.128 120.758 480.658 114.125 480.658 107.42 480.658 105.873 480.735 104.32 480.891 102.772 483.437 77.6385 505.958 59.2682 531.071 61.8091 554.632 64.1971 572.253 84.1483 572.256 107.347 572.256 108.888 572.18 110.441 572.021 112.007 570.789 124.182 564.89 135.147 555.411 142.886 547.161 149.628 537.053 153.214 526.544 153.214z" fill="#fff"></path></g><g clip-path="url(#clip1_533_466)"><path d="M297.553 502.371 465.34 502.068C467.861 502.065 469.905 504.103 469.911 506.621L470.31 727.713C470.316 730.234 468.275 732.278 465.757 732.284L297.97 732.587C295.449 732.59 293.405 730.552 293.399 728.034L293 506.942C292.994 504.424 295.035 502.377 297.553 502.371z" fill="#0c0367"></path><path d="M460.707 508.502 302.213 508.787 302.602 724.887 461.097 724.602 460.707 508.502z" fill="#fff"></path><path d="M415.802 499.106C415.799 498.133 415.01 497.347 414.04 497.35L347.49 497.47C346.518 497.473 345.731 498.262 345.734 499.235L345.746 506.15 415.814 506.024 415.802 499.106z" fill="#13375b"></path><path d="M380.751 489C374.956 489.009 370.264 493.718 370.273 499.514 370.282 505.31 374.992 510.001 380.787 509.992 386.583 509.98 391.274 505.274 391.265 499.478 391.253 493.679 386.547 488.988 380.751 489zM380.781 506.225C377.063 506.231 374.046 503.224 374.037 499.505 374.031 495.786 377.039 492.77 380.757 492.761 384.476 492.755 387.492 495.762 387.501 499.481 387.507 503.2 384.5 506.219 380.781 506.225z" fill="#13375b"></path><path d="M414.724 497.488C415.357 497.755 415.802 498.379 415.802 499.109L415.814 506.027 345.746 506.153C345.755 510.94 349.648 514.818 354.438 514.812L407.155 514.716C411.948 514.707 415.826 510.814 415.817 506.024L415.805 499.106C415.802 498.376 415.357 497.752 414.724 497.488z" fill="#355389"></path><path d="M347.49 497.47C346.884 497.47 346.346 497.779 346.031 498.247 346.349 497.779 346.884 497.47 347.49 497.47z" fill="#9bc1f9"></path><path d="M345.812 498.709C345.846 498.598 345.891 498.493 345.945 498.394 345.891 498.493 345.846 498.598 345.812 498.709z" fill="#9bc1f9"></path><path d="M442.533 572.25 420.002 572.292 419.963 549.76 442.494 549.721 442.533 572.25zM420.92 571.367 441.609 571.331 441.573 550.643 420.884 550.679 420.92 571.367z" fill="#184655"></path><path d="M442.599 609.74 420.067 609.782 420.025 587.251 442.557 587.209 442.599 609.74zM420.989 608.858 441.677 608.822 441.641 588.133 420.953 588.169 420.989 608.858z" fill="#184655"></path><path d="M442.667 647.23 420.136 647.272 420.094 624.741 442.625 624.702 442.667 647.23zM421.054 646.348 441.743 646.312 441.707 625.623 421.018 625.659 421.054 646.348z" fill="#184655"></path><path d="M442.734 684.721 420.202 684.763 420.16 662.231 442.692 662.192 442.734 684.721zM421.124 683.838 441.812 683.802 441.776 663.114 421.088 663.15 421.124 683.838z" fill="#184655"></path><path d="M410.521 550.238 314.096 550.411 314.102 553.653 410.527 553.479 410.521 550.238z" fill="#9bc1f9"></path><path d="M410.539 559.422 314.113 559.596 314.119 562.837 410.545 562.663 410.539 559.422z" fill="#9bc1f9"></path><path d="M410.557 568.606 314.131 568.78 314.137 572.022 410.562 571.848 410.557 568.606z" fill="#9bc1f9"></path><path d="M410.592 589.01 314.166 589.183 314.172 592.425 410.598 592.251 410.592 589.01z" fill="#9bc1f9"></path><path d="M410.607 598.191 314.182 598.365 314.187 601.606 410.613 601.433 410.607 598.191z" fill="#9bc1f9"></path><path d="M410.625 607.375 314.199 607.549 314.205 610.79 410.631 610.617 410.625 607.375z" fill="#9bc1f9"></path><path d="M410.658 625.744 314.232 625.917 314.238 629.159 410.664 628.985 410.658 625.744z" fill="#9bc1f9"></path><path d="M410.672 634.925 314.246 635.099 314.252 638.34 410.678 638.167 410.672 634.925z" fill="#9bc1f9"></path><path d="M410.689 644.11 314.264 644.283 314.27 647.525 410.695 647.351 410.689 644.11z" fill="#9bc1f9"></path><path d="M410.725 662.478 314.299 662.652 314.305 665.893 410.73 665.72 410.725 662.478z" fill="#9bc1f9"></path><path d="M410.742 671.659 314.316 671.833 314.322 675.074 410.748 674.901 410.742 671.659z" fill="#9bc1f9"></path><path d="M410.758 680.844 314.332 681.017 314.338 684.259 410.764 684.085 410.758 680.844z" fill="#9bc1f9"></path><path d="M425.617 704.559 314.373 704.76 314.379 708.001 425.622 707.801 425.617 704.559z" fill="#9bc1f9"></path><path d="M447.57 712.379 314.389 712.619 314.395 715.861 447.575 715.621 447.57 712.379z" fill="#9bc1f9"></path><path d="M431.154 568.567 424.158 556.564 426.661 555.103 430.722 562.072l6.63-15.908L440.03 547.281 431.154 568.567z" fill="#f47458"></path><path d="M431.223 606.55 424.227 594.544 426.73 593.085 430.791 600.052l6.63-15.905L440.098 585.264 431.223 606.55z" fill="#f47458"></path><path d="M431.359 680.807l-7-12.006L426.866 667.343 430.926 674.312 437.557 658.405 440.231 659.521 431.359 680.807z" fill="#f47458"></path><path d="M439.154 630.303 437.137 628.265 431.377 633.97 425.6 628.286 423.592 630.33 429.342 635.99 423.61 641.669 425.63 643.704 431.386 638.001 437.164 643.686 439.175 641.642 433.421 635.981l5.733-5.678z" fill="#f47458"></path><path opacity=".3" d="M318.535 652.393C312.928 652.402 307.493 653.518 302.475 655.634L302.484 660.917C307.334 658.537 312.784 657.195 318.541 657.183 338.797 657.147 355.305 673.595 355.341 693.851 355.365 706.829 348.621 718.267 338.443 724.822L346.352 724.807C346.919 724.297 347.477 723.769 348.021 723.223 355.848 715.365 360.149 704.932 360.128 693.839 360.107 682.749 355.77 672.328 347.913 664.5 340.061 656.673 329.625 652.375 318.535 652.393z" fill="#9bc1f9"></path><path opacity=".3" d="M318.557 663.651C312.66 663.663 307.155 665.368 302.5 668.306L302.506 671.182C307.044 667.958 312.585 666.055 318.563 666.043 333.931 666.016 346.458 678.496 346.485 693.863 346.512 709.23 334.033 721.758 318.666 721.785 312.687 721.797 307.14 719.912 302.59 716.707L302.596 719.582C307.26 722.502 312.771 724.192 318.672 724.18 335.359 724.15 348.914 710.548 348.884 693.86 348.848 677.172 335.245 663.621 318.557 663.651z" fill="#9bc1f9"></path><path d="M347.796 539.787V528.991H343.492V528.045H353.454V528.991H349.15V539.787H347.796z" fill="#184655"></path><path d="M364.448 538.841V539.787H355.812V528.048H364.141V528.994H357.157V533.105H362.214V534.051H357.157V538.844h7.291V538.841z" fill="#184655"></path><path d="M365.822 536.977 366.99 536.587C367.383 537.425 367.884 538.04 368.497 538.442 369.109 538.841 369.859 539.042 370.751 539.042 371.669 539.042 372.407 538.832 372.966 538.415 373.527 537.998 373.806 537.446 373.806 536.764 373.806 536.218 373.623 535.771 373.257 535.42 372.891 535.068 372.269 534.747 371.39 534.456 370.913 534.303 370.279 534.117 369.49 533.901S368.196 533.523 367.971 533.418C367.272 533.09 366.774 532.739 366.48 532.37 366.185 532.001 366.038 531.542 366.038 530.996 366.038 530.023 366.408 529.255 367.149 528.696 367.89 528.138 368.908 527.859 370.204 527.859 371.357 527.859 372.308 528.087 373.059 528.546 373.809 529.006 374.379 529.708 374.772 530.653L373.632 530.948C373.272 530.218 372.81 529.678 372.242 529.327 371.675 528.979 370.976 528.802 370.144 528.802 369.34 528.802 368.686 528.991 368.184 529.366 367.683 529.741 367.434 530.23 367.434 530.833 367.434 531.29 367.596 531.671 367.92 531.983 368.244 532.295 368.746 532.55 369.427 532.745 369.688 532.823 370.069 532.934 370.567 533.069 371.996 533.463 372.915 533.772 373.329 533.997 373.989 534.345 374.469 534.729 374.769 535.143 375.067 535.558 375.217 536.05 375.217 536.617 375.217 537.644 374.814 538.46 374.013 539.069 373.212 539.679 372.125 539.982 370.757 539.982 369.526 539.982 368.512 539.739 367.716 539.252 366.918 538.769 366.287 538.01 365.822 536.977z" fill="#184655"></path><path d="M380.784 539.787V528.991H376.48V528.045H386.442V528.991H382.141V539.787H380.784z" fill="#184655"></path><path d="M389.018 539.787V528.048H390.362V539.79H389.018V539.787z" fill="#184655"></path><path d="M395.776 528.898V539.79H394.471V528.048H396.662L403.628 537.956V528.048H404.934V539.79h-1.435L395.776 528.898z" fill="#184655"></path><path d="M417.262 538.469C416.775 538.988 416.205 539.375 415.542 539.634 414.881 539.892 414.11 540.018 413.234 540.018 411.433 540.018 410.061 539.498 409.119 538.457 408.176 537.418 407.705 535.909 407.705 533.937 407.705 531.983 408.185 530.476 409.149 529.417 410.112 528.354 411.475 527.826 413.237 527.826 414.539 527.826 415.581 528.105 416.361 528.666 417.141 529.228 417.718 530.11 418.09 531.317L416.823 531.53C416.508 530.581 416.058 529.885 415.473 529.435 414.887 528.985 414.134 528.759 413.219 528.759 411.91 528.759 410.896 529.198 410.184 530.074 409.47 530.951 409.113 532.193 409.113 533.802 409.113 535.537 409.476 536.848 410.199 537.731 410.923 538.613 411.997 539.057 413.426 539.057 414.5 539.057 415.365 538.808 416.019 538.307S417 537.145 417 536.326v-1.255h-3.613V534.189H418.456V539.787H417.268V538.469H417.262z" fill="#184655"></path></g><path d="M149.261 504.414C151.163 502.866 165.874 509.326 165.688 511.576 165.502 513.824 175.953 535.626 175.953 535.626L194.013 521.214 194.019 521.217C194.18 520.697 195.89 515.092 195.973 514.087 196.06 513.034 199.113 511.194 200.531 511.464S199.319 513.515 199.145 513.843C198.674 514.732 200.493 515.066 200.493 515.066S205.651 513.41 205.76 511.724C205.872 510.039 209.398 514.671 208.984 515.317 208.58 515.946 200.153 522.742 198.937 524.216c0 0-23.363 26.727-25.024 27.427C172.453 552.256 167.25 543.045 162.333 536.929 157.418 530.817 143.317 509.252 149.261 504.414z" fill="#f7a491"></path><path d="M102.125 700.944S98.914 704.078 98.8434 705.23C98.7696 706.38 98.5579 718.704 99.8699 719.857 101.182 721.009 105.031 721.822 103.793 723.119 102.856 724.098 95.6613 723.889 90.8912 723.626 89.499 723.549 87.754 712.431 87.2022 710.8 86.4003 708.428 84.4531 703.082 85.1813 701.429 85.5373 700.623 87.2343 698.967 89.6241 697.419 92.1391 695.795 94.545 692.173 94.545 692.173L102.125 700.944z" fill="#f48c7f"></path><path d="M135.382 708.245S132.508 716.367 132.505 716.386C132.29 717.674 131.45 720.852 131.45 722.021 131.45 726.416 151.251 718.29 146.815 716.342 146.414 716.165 145.153 714.759 145.022 713.263 144.82 710.958 146.69 708.068 146.69 708.068L135.382 708.245z" fill="#f7a491"></path><path d="M166.447 557.001S167.891 571.56 167.891 571.779C167.891 595.334 172.555 641.339 171.669 645.77 169.504 656.57 146.209 711.67 146.209 711.67l-12.591-1.505 13.515-66.588L143.989 617.637 135.447 565.149 166.447 557.001z" fill="#50bfa5"></path><path d="M124.19 569.878 121.8 583.68 115.336 640.476 90.7193 695.984S94.1806 704.062 99.2907 705.195L138.471 648.203l24.338-72.925L161.955 559.078 124.19 569.878z" fill="#96d9c9"></path><path d="M171.467 522.331 154.01 524.116S153.208 509.791 153.208 502.96C153.208 494.67 153.914 483.992 154.914 484.223 157.721 484.869 161.503 486.419 163.752 489.514 171.541 500.224 171.467 522.331 171.467 522.331z" fill="#b75742"></path><path d="M162.888 501.496C163.254 504.022 169.965 572.735 169.965 572.735 138.179 588.1 120.635 575.474 120.635 575.474S121.674 527.224 120.43 520.656C119.605 516.312 118.576 487.437 121.389 486.628 124.998 485.591 129.139 484.487 133.649 484.021 137.502 483.62 152.463 483.389 155.138 484.288 155.145 484.288 161.352 490.866 162.888 501.496z" fill="#f47458"></path><path d="M89.7787 697.336s7.3973 20.848 10.2943 21.856C100.843 719.459 104.532 720.136 105.228 721.77 105.436 722.262 105.228 723.905 105.228 723.905H89.8044S87.8541 714.72 87.0842 710.682C87.0842 710.682 83.0006 700.819 83.4561 699.923 83.9116 699.031 89.7787 697.336 89.7787 697.336z" fill="#f47458"></path><path d="M130.323 723.472 132.591 716.303S137.355 718.319 139.735 717.982C142.115 717.645 146.766 716.303 146.766 716.303 156.271 719.433 164.057 720.955 162.642 723.472H130.323z" fill="#f47458"></path><path d="M173.917 551.646C173.987 551.617 174.247 551.412 174.398 551.29 173.833 544.557 173.936 538.034 176.047 535.828 175.996 535.722 175.534 534.74 175.052 533.722 172.605 535.616 171.444 540.647 171.899 548.814 171.931 549.376 172.092 549.803 172.223 550.506 172.929 551.286 173.57 551.79 173.917 551.646z" fill="#f7a491"></path><path d="M137.902 470.736 135.852 484.252S143.336 500.346 147.801 498.95C151.548 497.778 149.245 483.54 149.245 483.54S147.201 475.892 147.814 472.065C148.427 468.239 137.902 470.736 137.902 470.736z" fill="#f7a491"></path><path d="M147.815 472.065C148.428 468.239 137.903 470.736 137.903 470.736L137.733 471.857C138.041 472.608 138.416 473.25 138.875 473.741 141.226 476.274 144.902 477.793 148.078 477.908 147.761 475.847 147.565 473.635 147.815 472.065z" fill="#f47458"></path><path d="M136.177 451.615C135.879 451.506 133.794 467.009 137.752 471.276 141.714 475.542 149.429 476.936 152.197 473.578 155.257 469.863 155.103 453.201 148.947 448.812 142.792 444.424 136.177 451.615 136.177 451.615z" fill="#f7a491"></path><path d="M146.601 440.52C141.841 441.492 138.758 444.401 137.626 445.644 135.464 445.897 132.529 447.095 129.494 452.119 125.763 458.299 128.519 465.147 132.859 468.505S137.142 475.745 137.142 475.745L137.828 473.738C138.335 472.216 138.54 470.605 138.37 469.009 138.267 468.052 138.062 467.019 137.668 466.168 136.622 463.924 139.91 462.434 140.834 460.566 141.543 459.127 141.578 455.84 142.697 453.464L144.032 451.65S147.111 449.252 150.127 449.929C153.142 450.61 152.709 439.274 146.601 440.52z" fill="#0e2e35"></path><path d="M140.636 463.327C140.668 465.218 139.808 466.765 138.718 466.784 137.627 466.804 136.716 465.285 136.684 463.394S137.511 459.956 138.602 459.936C139.693 459.917 140.604 461.436 140.636 463.327z" fill="#f7a491"></path><path d="M147.067 467.696 153.037 467.388S153.018 469.664 150.394 469.876C147.199 470.136 147.067 467.696 147.067 467.696z" fill="#fff"></path><path d="M195.917 503.04C194.515 501.602 193.206 500.122 191.991 498.606l-26.058 25.465C164.333 525.638 164.885 528.8 167.165 531.138 169.446 533.475 172.596 534.104 174.197 532.537l26.057-25.465C198.769 505.82 197.319 504.475 195.917 503.04z" fill="#0e2e35"></path><path opacity=".6" d="M196.436 502.547c-25.364-25.985-24.748-67.756 1.376-93.298C223.936 383.706 265.676 384.065 291.04 410.049c25.365 25.985 24.749 67.756-1.375 93.298C263.54 528.89 221.801 528.532 196.436 502.547z" fill="#c5ddf9"></path><path d="M196.342 501.849C207.152 513.352 221.94 520.867 238.185 522.344L309.469 449.827C309.456 449.689 309.443 449.554 309.43 449.416 307.656 432.86 299.961 418.384 288.698 407.895l-92.356 93.954z" fill="#fff"></path><path d="M244.293 390.254 178.37 457.317C178.402 459.346 178.52 461.391 178.742 463.449 179.746 472.82 182.652 481.52 187.021 489.216l89.03-90.567C266.572 393.31 255.71 390.292 244.293 390.254z" fill="#fff"></path><path d="M295.641 509.502C266.103 538.374 218.913 537.96 190.245 508.581 161.573 479.199 162.279 431.977 191.82 403.105 221.357 374.234 268.547 374.648 297.216 404.027 325.884 433.409 325.178 480.631 295.641 509.502zM289.648 503.361C315.776 477.822 316.402 436.051 291.041 410.062 265.68 384.074 223.94 383.708 197.812 409.247 171.684 434.786 171.059 476.557 196.42 502.545 221.781 528.534 263.518 528.9 289.648 503.361z" fill="#184655"></path><path opacity=".5" d="M292.491 506.273C264.743 533.391 220.421 533.006 193.491 505.406 166.562 477.809 167.223 433.45 194.97 406.332 222.718 379.213 267.04 379.598 293.97 407.199 320.899 434.799 320.239 479.154 292.491 506.273zM289.649 503.361c26.128-25.539 26.753-67.31 1.392-93.299C265.68 384.074 223.94 383.708 197.812 409.247 171.685 434.786 171.059 476.557 196.42 502.545 221.781 528.534 263.518 528.9 289.649 503.361z" fill="#50bfa5"></path><path d="M85.0067 614.798l-4.0483-4.202C76.9101 606.397 77.0321 599.706 81.2311 595.658L156.457 522.665C160.657 518.614 167.338 518.739 171.383 522.938L175.432 527.141C179.48 531.34 179.355 538.03 175.159 542.079L99.9326 615.071C95.7368 619.12 89.055 618.998 85.0067 614.798z" fill="#184655"></path><path d="M89.1529 573.464C89.1337 573.316 89.1305 573.169 89.1465 573.021 89.6149 568.263 93.5637 528.306 94.2277 526.608 94.8276 525.073 112.532 499.73 112.532 499.73l8.702 11.866-17.027 22.73C103.825 535.77 97.6826 562.744 97.6826 562.744S96.4218 567.66 95.8605 570.607C96.1171 571.316 96.3705 571.987 96.5951 572.536 97.1596 573.711 97.8237 574.674 98.4299 575.487 99.1902 576.508 100.448 578.739 100.605 579.336 100.784 580.029 101.112 581.471 101.295 582.341 101.477 583.211 101.731 584.225 101.773 584.697 101.798 584.986 102.093 585.558 102.321 585.962 102.661 586.566 102.08 587.279 101.426 587.06 100.807 586.855 100.326 586.052 100.031 585.555 99.1934 584.145 98.7443 581.57 98.5358 581.708 98.3273 581.843 97.5927 586.213 97.4772 586.704 97.3617 587.198 96.4796 592.268 95.9824 593.195 95.4852 594.123 94.8275 593.966 94.6543 593.388 94.5036 592.887 95.2029 585.795 95.2029 585.795S95.2895 584.89 94.8949 585.173C94.5003 585.455 93.8524 591.895 93.5765 592.839 93.3007 593.783 92.6719 594.281 92.1394 593.523 91.4915 592.602 92.6046 585.77 92.6046 585.77S92.7297 584.912 92.364 584.99C91.9983 585.067 91.5396 590.56 91.2541 591.032 90.9686 591.507 90.25 591.677 89.9068 590.884 89.5026 589.953 90.5484 583.863 90.5484 583.863S90.497 583.378 90.2693 583.538C90.0415 583.699 89.3165 588.351 88.8418 588.781 88.444 589.144 88.1136 588.791 88.1136 588.791 87.2443 588.197 88.5755 583.773 88.5627 581.574 88.5498 579.374 89.57 576.902 89.2652 574.283 89.2428 574.119 89.1882 573.718 89.1529 573.464z" fill="#f8a492"></path><path d="M98.7006 515.779 113.825 525.94S122.349 513.246 126.926 508.725C132.659 503.062 124.838 485.719 121.146 486.702 112.882 488.898 98.7006 515.779 98.7006 515.779z" fill="#f47458"></path><path d="M257.549 480.987C243.493 495.04 227.487 493.894 216.92 483.329 206.352 472.764 205.206 456.762 219.262 442.71 233.319 428.657 253.291 425.819 263.859 436.402 274.427 446.967 271.605 466.934 257.549 480.987z" fill="#263238"></path><path d="M253.651 446.608C248.076 441.034 246.948 433.119 251.154 428.931 255.344 424.742 263.261 425.854 268.836 431.427 274.41 437 275.539 444.915 271.332 449.104 267.143 453.309 259.225 452.181 253.651 446.608z" fill="#263238"></path><path d="M249.187 453.224C248.521 453.224 247.854 452.916 247.426 452.318l-17.698-24.669C229.42 427.204 229.266 426.674 229.334 426.127L231.147 410.912C231.284 409.732 232.361 408.878 233.558 409.014c1.18000000000001.137 2.035 1.214 1.898 2.411L233.746 425.802l17.203 23.985C251.65 450.762 251.428 452.112 250.453 452.813 250.077 453.087 249.632 453.224 249.187 453.224z" fill="#263238"></path><path d="M273.881 470.918C273.436 470.918 272.992 470.781 272.616 470.507L247.94 452.813C246.965 452.112 246.743 450.762 247.444 449.787 248.145 448.813 249.496 448.591 250.471 449.292l23.991 17.198L288.843 464.78C290.04 464.626 291.101 465.481 291.255 466.678 291.391 467.857 290.553 468.935 289.356 469.088L274.137 470.901C274.035 470.918 273.966 470.918 273.881 470.918z" fill="#263238"></path><path d="M235.064 467.345C234.619 467.345 234.191 467.208 233.798 466.934l-23.991-17.198L195.426 451.446C194.229 451.6 193.169 450.745 193.015 449.548 192.878 448.369 193.716 447.292 194.913 447.138L210.132 445.326C210.662 445.257 211.209 445.394 211.654 445.719l24.675 17.694C237.304 464.114 237.526 465.464 236.825 466.439 236.397 467.037 235.748 467.345 235.064 467.345z" fill="#263238"></path><path d="M250.966 507.229C250.881 507.229 250.795 507.229 250.71 507.212 249.53 507.075 248.675 505.998 248.812 504.801L250.522 490.424l-17.203-23.985C232.618 465.464 232.84 464.114 233.815 463.413 234.79 462.712 236.141 462.934 236.842 463.908l17.698 24.669C254.848 489.022 255.002 489.552 254.934 490.099L253.121 505.314C252.967 506.425 252.044 507.229 250.966 507.229z" fill="#263238"></path><path d="M275.146 493.296C274.599 493.296 274.035 493.091 273.624 492.663l-66.023-66.006C206.763 425.819 206.763 424.452 207.601 423.597 208.439 422.759 209.807 422.759 210.662 423.597l66.023 66.006C277.523 490.441 277.523 491.808 276.685 492.663 276.258 493.074 275.693 493.296 275.146 493.296z" fill="#263238"></path><path d="M266.27 436.162C265.98 436.162 265.689 436.111 265.415 435.991 264.321 435.513 263.808 434.247 264.287 433.153 264.475 432.709 268.664 422.434 258.935 415.049 257.977 414.331 257.806 412.963 258.524 412.023 259.242 411.066 260.61 410.878 261.551 411.613 271.537 419.186 270.306 430.145 268.271 434.863 267.895 435.666 267.091 436.162 266.27 436.162z" fill="#263238"></path><path d="M286.945 442.197C286.295 442.197 285.645 441.906 285.217 441.342 277.83 431.615 267.536 435.803 267.109 435.991 266.014 436.453 264.749 435.957 264.27 434.846 263.808 433.752 264.304 432.487 265.399 432.008 270.135 429.974 281.079 428.743 288.655 438.709 289.373 439.667 289.185 441.017 288.244 441.735 287.868 442.043 287.406 442.197 286.945 442.197z" fill="#263238"></path><defs><linearGradient id="paint0_linear_533_466" x1="750.199" y1="855.939" x2="162.097" y2="125.796" gradientUnits="userSpaceOnUse"><stop stop-color="#dae3fe"></stop><stop offset="1" stop-color="#e9effd"></stop></linearGradient><linearGradient id="paint1_linear_533_466" x1="318.653" y1="719.195" x2="336.81" y2="71.7967" gradientUnits="userSpaceOnUse"><stop stop-color="#09005d"></stop><stop offset="1" stop-color="#1a0f91"></stop></linearGradient><linearGradient id="paint2_linear_533_466" x1="377.371" y1="177.999" x2="338.18" y2="577.936" gradientUnits="userSpaceOnUse"><stop stop-color="#09005d"></stop><stop offset="1" stop-color="#1a0f91"></stop></linearGradient><linearGradient id="paint3_linear_533_466" x1="585.801" y1="602.479" x2="612.074" y2="573.012" gradientUnits="userSpaceOnUse"><stop stop-color="#febbba"></stop><stop offset="1" stop-color="#ff928e"></stop></linearGradient><linearGradient id="paint4_linear_533_466" x1="620.892" y1="614.749" x2="590.385" y2="688.56" gradientUnits="userSpaceOnUse"><stop stop-color="#09005d"></stop><stop offset="1" stop-color="#1a0f91"></stop></linearGradient><linearGradient id="paint5_linear_533_466" x1="623.193" y1="585.745" x2="854.832" y2="440.783" gradientUnits="userSpaceOnUse"><stop stop-color="#febbba"></stop><stop offset="1" stop-color="#ff928e"></stop></linearGradient><linearGradient id="paint6_linear_533_466" x1="609.067" y1="634.008" x2="564.256" y2="700.104" gradientUnits="userSpaceOnUse"><stop stop-color="#09005d"></stop><stop offset="1" stop-color="#1a0f91"></stop></linearGradient><linearGradient id="paint7_linear_533_466" x1="585.039" y1="529.15" x2="447.431" y2="628.263" gradientUnits="userSpaceOnUse"><stop stop-color="#4f52ff"></stop><stop offset="1" stop-color="#4042e2"></stop></linearGradient><linearGradient id="paint8_linear_533_466" x1="554.636" y1="444.785" x2="525.195" y2="478.762" gradientUnits="userSpaceOnUse"><stop stop-color="#09005d"></stop><stop offset="1" stop-color="#1a0f91"></stop></linearGradient><linearGradient id="paint9_linear_533_466" x1="587.673" y1="389.321" x2="490.845" y2="601.062" gradientUnits="userSpaceOnUse"><stop stop-color="#4f52ff"></stop><stop offset="1" stop-color="#4042e2"></stop></linearGradient><linearGradient id="paint10_linear_533_466" x1="511.187" y1="553.829" x2="443.759" y2="553.829" gradientUnits="userSpaceOnUse"><stop stop-color="#febbba"></stop><stop offset="1" stop-color="#ff928e"></stop></linearGradient><linearGradient id="paint11_linear_533_466" x1="538.63" y1="521.591" x2="537.07" y2="497.296" gradientUnits="userSpaceOnUse"><stop stop-color="#febbba"></stop><stop offset="1" stop-color="#ff928e"></stop></linearGradient><linearGradient id="paint12_linear_533_466" x1="536.336" y1="501.035" x2="565.691" y2="444.874" gradientUnits="userSpaceOnUse"><stop stop-color="#febbba"></stop><stop offset="1" stop-color="#ff928e"></stop></linearGradient><linearGradient id="paint13_linear_533_466" x1="572.994" y1="469.18" x2="531.908" y2="477.421" gradientUnits="userSpaceOnUse"><stop stop-color="#09005d"></stop><stop offset="1" stop-color="#1a0f91"></stop></linearGradient><linearGradient id="paint14_linear_533_466" x1="529.619" y1="497.524" x2="558.975" y2="441.364" gradientUnits="userSpaceOnUse"><stop stop-color="#febbba"></stop><stop offset="1" stop-color="#ff928e"></stop></linearGradient><linearGradient id="paint15_linear_533_466" x1="514.279" y1="553.05" x2="549.035" y2="564.445" gradientUnits="userSpaceOnUse"><stop stop-color="#09005d"></stop><stop offset="1" stop-color="#1a0f91"></stop></linearGradient><linearGradient id="paint16_linear_533_466" x1="605.828" y1="547.37" x2="288.578" y2="520.688" gradientUnits="userSpaceOnUse"><stop stop-color="#09005d"></stop><stop offset="1" stop-color="#1a0f91"></stop></linearGradient><linearGradient id="paint17_linear_533_466" x1="577.152" y1="536.844" x2="588.514" y2="553.948" gradientUnits="userSpaceOnUse"><stop stop-color="#4f52ff"></stop><stop offset="1" stop-color="#4042e2"></stop></linearGradient><linearGradient id="paint18_linear_533_466" x1="225.853" y1="583.496" x2="224.753" y2="600.532" gradientUnits="userSpaceOnUse"><stop stop-color="#09005d"></stop><stop offset="1" stop-color="#1a0f91"></stop></linearGradient><linearGradient id="paint19_linear_533_466" x1="226.284" y1="536.44" x2="222.436" y2="619.971" gradientUnits="userSpaceOnUse"><stop stop-color="#4f52ff"></stop><stop offset="1" stop-color="#4042e2"></stop></linearGradient><linearGradient id="paint20_linear_533_466" x1="225.787" y1="513.732" x2="222.489" y2="583.524" gradientUnits="userSpaceOnUse"><stop stop-color="#4f52ff"></stop><stop offset="1" stop-color="#4042e2"></stop></linearGradient><linearGradient id="paint21_linear_533_466" x1="227.283" y1="464.815" x2="222.328" y2="532.507" gradientUnits="userSpaceOnUse"><stop stop-color="#09005d"></stop><stop offset="1" stop-color="#1a0f91"></stop></linearGradient><linearGradient id="paint22_linear_533_466" x1="159.743" y1="532.201" x2="142.254" y2="607.275" gradientUnits="userSpaceOnUse"><stop stop-color="#09005d"></stop><stop offset="1" stop-color="#1a0f91"></stop></linearGradient><linearGradient id="paint23_linear_533_466" x1="178.828" y1="536.647" x2="161.34" y2="611.721" gradientUnits="userSpaceOnUse"><stop stop-color="#09005d"></stop><stop offset="1" stop-color="#1a0f91"></stop></linearGradient><linearGradient id="paint24_linear_533_466" x1="189.045" y1="539.027" x2="171.556" y2="614.101" gradientUnits="userSpaceOnUse"><stop stop-color="#09005d"></stop><stop offset="1" stop-color="#1a0f91"></stop></linearGradient><linearGradient id="paint25_linear_533_466" x1="199.259" y1="541.406" x2="181.77" y2="616.48" gradientUnits="userSpaceOnUse"><stop stop-color="#09005d"></stop><stop offset="1" stop-color="#1a0f91"></stop></linearGradient><linearGradient id="paint26_linear_533_466" x1="117.057" y1="408.178" x2="134.651" y2="391.983" gradientUnits="userSpaceOnUse"><stop stop-color="#09005d"></stop><stop offset="1" stop-color="#1a0f91"></stop></linearGradient><linearGradient id="paint27_linear_533_466" x1="115.238" y1="382.318" x2="157.909" y2="343.042" gradientUnits="userSpaceOnUse"><stop stop-color="#09005d"></stop><stop offset="1" stop-color="#1a0f91"></stop></linearGradient><linearGradient id="paint28_linear_533_466" x1="84.2399" y1="244.973" x2="150.698" y2="396.116" gradientUnits="userSpaceOnUse"><stop stop-color="#4f52ff"></stop><stop offset="1" stop-color="#4042e2"></stop></linearGradient><linearGradient id="paint29_linear_533_466" x1="189.852" y1="502.667" x2="259.773" y2="438.308" gradientUnits="userSpaceOnUse"><stop stop-color="#4f52ff"></stop><stop offset="1" stop-color="#4042e2"></stop></linearGradient><linearGradient id="paint30_linear_533_466" x1="143.399" y1="238.021" x2="116.98" y2="199.605" gradientUnits="userSpaceOnUse"><stop stop-color="#09005d"></stop><stop offset="1" stop-color="#1a0f91"></stop></linearGradient><linearGradient id="paint31_linear_533_466" x1="32.3553" y1="251.734" x2="199.487" y2="97.8974" gradientUnits="userSpaceOnUse"><stop stop-color="#09005d"></stop><stop offset="1" stop-color="#1a0f91"></stop></linearGradient><linearGradient id="paint32_linear_533_466" x1="88.2945" y1="137.159" x2="132.378" y2="205.152" gradientUnits="userSpaceOnUse"><stop stop-color="#4f52ff"></stop><stop offset="1" stop-color="#4042e2"></stop></linearGradient><linearGradient id="paint33_linear_533_466" x1="10.0853" y1="281.075" x2="66.2347" y2="229.392" gradientUnits="userSpaceOnUse"><stop stop-color="#4f52ff"></stop><stop offset="1" stop-color="#4042e2"></stop></linearGradient><linearGradient id="paint34_linear_533_466" x1="193.536" y1="91.3561" x2="308.509" y2="161.267" gradientUnits="userSpaceOnUse"><stop stop-color="#09005d"></stop><stop offset="1" stop-color="#1a0f91"></stop></linearGradient><linearGradient id="paint35_linear_533_466" x1="259.167" y1="81.7153" x2="127.371" y2="110.21" gradientUnits="userSpaceOnUse"><stop stop-color="#4f52ff"></stop><stop offset="1" stop-color="#4042e2"></stop></linearGradient><linearGradient id="paint36_linear_533_466" x1="191.297" y1="183.091" x2="311.305" y2="162.268" gradientUnits="userSpaceOnUse"><stop stop-color="#4f52ff"></stop><stop offset="1" stop-color="#4042e2"></stop></linearGradient><linearGradient id="paint37_linear_533_466" x1="434.859" y1="209.163" x2="366.308" y2="166.34" gradientUnits="userSpaceOnUse"><stop stop-color="#4f52ff"></stop><stop offset="1" stop-color="#4042e2"></stop></linearGradient><linearGradient id="paint38_linear_533_466" x1="407.346" y1="253.206" x2="338.796" y2="210.384" gradientUnits="userSpaceOnUse"><stop stop-color="#4f52ff"></stop><stop offset="1" stop-color="#4042e2"></stop></linearGradient><linearGradient id="paint39_linear_533_466" x1="325.754" y1="171.81" x2="344.636" y2="183.292" gradientUnits="userSpaceOnUse"><stop stop-color="#09005d"></stop><stop offset="1" stop-color="#1a0f91"></stop></linearGradient><linearGradient id="paint40_linear_533_466" x1="343.46" y1="162.315" x2="290.2" y2="179.923" gradientUnits="userSpaceOnUse"><stop stop-color="#4f52ff"></stop><stop offset="1" stop-color="#4042e2"></stop></linearGradient><clipPath id="clip0_533_466"><rect width="670" height="668" fill="#fff"></rect></clipPath><clipPath id="clip1_533_466"><rect width="177.31" height="243.59" fill="#fff" transform="translate(293 489)"></rect></clipPath></defs></svg>